<?xml version="1.0" encoding="UTF-8"?>
<!DOCTYPE svg PUBLIC "-//W3C//DTD SVG 1.1//EN" "http://www.w3.org/Graphics/SVG/1.1/DTD/svg11.dtd">
<!-- Creator: CorelDRAW 2021 (64-Bit) -->
<svg xmlns="http://www.w3.org/2000/svg" xml:space="preserve" width="7.956in" height="1.415in" version="1.1" style="shape-rendering:geometricPrecision; text-rendering:geometricPrecision; image-rendering:optimizeQuality; fill-rule:evenodd; clip-rule:evenodd"
viewBox="0 0 7956 1415"
 xmlns:xlink="http://www.w3.org/1999/xlink"
 xmlns:xodm="http://www.corel.com/coreldraw/odm/2003">
 <defs>
  <style type="text/css">
   <![CDATA[
    .fil1 {fill:#91D8F7}
    .fil2 {fill:#A8CF45}
    .fil30 {fill:#56C7E0}
    .fil3 {fill:#785CA5}
    .fil0 {fill:#539BCD}
    .fil32 {fill:#BDBFC1;fill-rule:nonzero}
    .fil4 {fill:#72C7F0;fill-rule:nonzero}
    .fil33 {fill:#6E4D8B;fill-rule:nonzero}
    .fil5 {fill:#3967AF;fill-rule:nonzero}
    .fil31 {fill:#285181;fill-rule:nonzero}
    .fil6 {fill:#0098DA;fill-rule:nonzero}
    .fil26 {fill:#231F1F;fill-rule:nonzero}
    .fil27 {fill:white;fill-rule:nonzero}
    .fil13 {fill:url(#id20);fill-rule:nonzero}
    .fil18 {fill:url(#id21);fill-rule:nonzero}
    .fil7 {fill:url(#id22);fill-rule:nonzero}
    .fil17 {fill:url(#id23);fill-rule:nonzero}
    .fil12 {fill:url(#id24);fill-rule:nonzero}
    .fil15 {fill:url(#id25);fill-rule:nonzero}
    .fil22 {fill:url(#id26);fill-rule:nonzero}
    .fil8 {fill:url(#id27);fill-rule:nonzero}
    .fil11 {fill:url(#id28);fill-rule:nonzero}
    .fil21 {fill:url(#id29);fill-rule:nonzero}
    .fil9 {fill:url(#id30);fill-rule:nonzero}
    .fil16 {fill:url(#id31);fill-rule:nonzero}
    .fil10 {fill:url(#id32);fill-rule:nonzero}
    .fil20 {fill:url(#id33);fill-rule:nonzero}
    .fil14 {fill:url(#id34);fill-rule:nonzero}
    .fil23 {fill:url(#id35);fill-rule:nonzero}
    .fil19 {fill:url(#id36);fill-rule:nonzero}
    .fil24 {fill:url(#id37);fill-rule:nonzero}
    .fil25 {fill:url(#id38);fill-rule:nonzero}
    .fil28 {fill:url(#id39);fill-rule:nonzero}
    .fil29 {fill:url(#id40);fill-rule:nonzero}
   ]]>
  </style>
     <mask id="id0">
  <linearGradient id="id1" gradientUnits="userSpaceOnUse" x1="581.29" y1="810.94" x2="282.34" y2="570.19">
   <stop offset="0" style="stop-opacity:1; stop-color:white"/>
   <stop offset="1" style="stop-opacity:0; stop-color:white"/>
  </linearGradient>
      <rect style="fill:url(#id1)" x="48.04" y="250.6" width="622.5" height="725.18"/>
     </mask>
     <mask id="id2">
  <linearGradient id="id3" gradientUnits="userSpaceOnUse" x1="1226.8" y1="789.77" x2="1131.17" y2="569.01">
   <stop offset="0" style="stop-opacity:1; stop-color:white"/>
   <stop offset="1" style="stop-opacity:0; stop-color:white"/>
  </linearGradient>
      <rect style="fill:url(#id3)" x="869.41" y="250.6" width="622.5" height="725.18"/>
     </mask>
      <mask id="id4">
  <linearGradient id="id5" gradientUnits="userSpaceOnUse" x1="972.75" y1="570.2" x2="954.71" y2="378.4">
   <stop offset="0" style="stop-opacity:1; stop-color:white"/>
   <stop offset="1" style="stop-opacity:0; stop-color:white"/>
  </linearGradient>
       <rect style="fill:url(#id5)" x="461.37" y="20.24" width="616.67" height="616.67"/>
      </mask>
      <mask id="id6">
  <linearGradient id="id7" gradientUnits="userSpaceOnUse" x1="582.66" y1="108.82" x2="847.71" y2="439.17">
   <stop offset="0" style="stop-opacity:1; stop-color:white"/>
   <stop offset="1" style="stop-opacity:0; stop-color:white"/>
  </linearGradient>
       <rect style="fill:url(#id7)" x="461.37" y="20.24" width="616.67" height="616.67"/>
      </mask>
       <mask id="id8">
  <radialGradient id="id9" gradientUnits="userSpaceOnUse" cx="776.52" cy="207.2" r="0" fx="776.52" fy="207.2">
   <stop offset="0" style="stop-opacity:0.443137; stop-color:white"/>
   <stop offset="0.521569" style="stop-opacity:0.223529; stop-color:white"/>
   <stop offset="1" style="stop-opacity:0; stop-color:white"/>
  </radialGradient>
        <rect style="fill:url(#id9)" x="775.02" y="205.7" width="104.83" height="104.83"/>
       </mask>
      <mask id="id10">
  <linearGradient id="id11" gradientUnits="userSpaceOnUse" x1="889.17" y1="36.23" x2="830.92" y2="278.17">
   <stop offset="0" style="stop-opacity:1; stop-color:white"/>
   <stop offset="1" style="stop-opacity:0; stop-color:white"/>
  </linearGradient>
       <rect style="fill:url(#id11)" x="492.74" y="51.17" width="552.35" height="552.35"/>
      </mask>
      <mask id="id12">
  <linearGradient id="id13" gradientUnits="userSpaceOnUse" x1="598.23" y1="686.94" x2="683.28" y2="459.17">
   <stop offset="0" style="stop-opacity:0.529412; stop-color:white"/>
   <stop offset="0.509804" style="stop-opacity:0.266667; stop-color:white"/>
   <stop offset="1" style="stop-opacity:0; stop-color:white"/>
  </linearGradient>
       <rect style="fill:url(#id13)" x="499.79" y="390.82" width="281.94" height="364.47"/>
      </mask>
      <mask id="id14">
  <linearGradient id="id15" gradientUnits="userSpaceOnUse" x1="396.46" y1="509.31" x2="617.5" y2="409.28">
   <stop offset="0" style="stop-opacity:0.529412; stop-color:white"/>
   <stop offset="0.509804" style="stop-opacity:0.266667; stop-color:white"/>
   <stop offset="1" style="stop-opacity:0; stop-color:white"/>
  </linearGradient>
       <rect style="fill:url(#id15)" x="331.79" y="325.4" width="350.38" height="267.78"/>
      </mask>
    <mask id="id16">
  <linearGradient id="id17" gradientUnits="userSpaceOnUse" x1="5230.29" y1="846" x2="5230.29" y2="192.81">
   <stop offset="0" style="stop-opacity:1; stop-color:white"/>
   <stop offset="1" style="stop-opacity:0; stop-color:white"/>
  </linearGradient>
     <rect style="fill:url(#id17)" x="1887.81" y="2.66" width="5991.87" height="906.31"/>
    </mask>
       <mask id="id18">
  <linearGradient id="id19" gradientUnits="userSpaceOnUse" x1="476.09" y1="1255.23" x2="476.09" y2="1127.7">
   <stop offset="0" style="stop-opacity:1; stop-color:white"/>
   <stop offset="1" style="stop-opacity:0; stop-color:white"/>
  </linearGradient>
        <rect style="fill:url(#id19)" x="-3.28" y="1060.44" width="1538.31" height="204.31"/>
       </mask>
  <linearGradient id="id20" gradientUnits="userSpaceOnUse" x1="477.43" y1="502.02" x2="776.91" y2="329.11">
   <stop offset="0" style="stop-opacity:1; stop-color:white"/>
   <stop offset="1" style="stop-opacity:1; stop-color:white"/>
  </linearGradient>
  <linearGradient id="id21" gradientUnits="userSpaceOnUse" xlink:href="#id20" x1="954.15" y1="546.21" x2="803.39" y2="366.55">
  </linearGradient>
  <linearGradient id="id22" gradientUnits="userSpaceOnUse" xlink:href="#id20" x1="771.32" y1="19.15" x2="771.32" y2="316.02">
  </linearGradient>
  <linearGradient id="id23" gradientUnits="userSpaceOnUse" xlink:href="#id20" x1="872.76" y1="593.61" x2="791.17" y2="369.4">
  </linearGradient>
  <linearGradient id="id24" gradientUnits="userSpaceOnUse" xlink:href="#id20" x1="557.5" y1="373.67" x2="664.54" y2="354.8">
  </linearGradient>
  <linearGradient id="id25" gradientUnits="userSpaceOnUse" xlink:href="#id20" x1="664.96" y1="597.35" x2="749.06" y2="366.3">
  </linearGradient>
  <linearGradient id="id26" gradientUnits="userSpaceOnUse" xlink:href="#id20" x1="1061.98" y1="155.13" x2="762.5" y2="328.04">
  </linearGradient>
  <linearGradient id="id27" gradientUnits="userSpaceOnUse" xlink:href="#id20" x1="666.63" y1="63.54" x2="748.23" y2="287.74">
  </linearGradient>
  <linearGradient id="id28" gradientUnits="userSpaceOnUse" xlink:href="#id20" x1="553.7" y1="282.34" x2="667.43" y2="302.38">
  </linearGradient>
  <linearGradient id="id29" gradientUnits="userSpaceOnUse" xlink:href="#id20" x1="981.91" y1="283.48" x2="874.86" y2="302.35">
  </linearGradient>
  <linearGradient id="id30" gradientUnits="userSpaceOnUse" xlink:href="#id20" x1="585.26" y1="110.93" x2="736.02" y2="290.59">
  </linearGradient>
  <linearGradient id="id31" gradientUnits="userSpaceOnUse" xlink:href="#id20" x1="768.08" y1="641.09" x2="768.08" y2="338.03">
  </linearGradient>
  <linearGradient id="id32" gradientUnits="userSpaceOnUse" xlink:href="#id20" x1="480.21" y1="156.56" x2="773.77" y2="326.04">
  </linearGradient>
  <linearGradient id="id33" gradientUnits="userSpaceOnUse" xlink:href="#id20" x1="985.71" y1="374.81" x2="871.98" y2="354.75">
  </linearGradient>
  <linearGradient id="id34" gradientUnits="userSpaceOnUse" xlink:href="#id20" x1="585.07" y1="546.29" x2="735.93" y2="366.52">
  </linearGradient>
  <linearGradient id="id35" gradientUnits="userSpaceOnUse" xlink:href="#id20" x1="954.33" y1="110.86" x2="803.48" y2="290.63">
  </linearGradient>
  <linearGradient id="id36" gradientUnits="userSpaceOnUse" xlink:href="#id20" x1="1059.19" y1="500.59" x2="765.63" y2="331.11">
  </linearGradient>
  <linearGradient id="id37" gradientUnits="userSpaceOnUse" xlink:href="#id20" x1="874.44" y1="59.79" x2="790.35" y2="290.85">
  </linearGradient>
  <radialGradient id="id38" gradientUnits="userSpaceOnUse" gradientTransform="matrix(-0.440714 1.22406 -1.22407 -0.440712 1504 -477)" cx="769.7" cy="323.16" r="841.62" fx="769.7" fy="323.16">
   <stop offset="0" style="stop-opacity:1; stop-color:white"/>
   <stop offset="0.521569" style="stop-opacity:1; stop-color:white"/>
   <stop offset="1" style="stop-opacity:1; stop-color:white"/>
  </radialGradient>
  <radialGradient id="id39" gradientUnits="userSpaceOnUse" gradientTransform="matrix(-0.0433315 1.9092 -1.90921 -0.0433318 1070 -1594)" xlink:href="#id38" cx="878.79" cy="80.14" r="192.28" fx="878.79" fy="80.14">
  </radialGradient>
  <radialGradient id="id40" gradientUnits="userSpaceOnUse" gradientTransform="matrix(-0.100452 -1.79696 1.7971 -0.10046 130 1713)" cx="725.44" cy="371.87" r="24.41" fx="725.44" fy="371.87">
   <stop offset="0" style="stop-opacity:1; stop-color:white"/>
   <stop offset="0.368627" style="stop-opacity:1; stop-color:#7F7F7F"/>
   <stop offset="1" style="stop-opacity:1; stop-color:black"/>
  </radialGradient>
 </defs>
 <g id="Layer_x0020_1">
  <metadata id="CorelCorpID_0Corel-Layer"/>
  <g id="_2661866975504">
   <g>
    <path class="fil0" d="M1349.16 449.07c11.91,-20.38 26.5,-52.86 41.54,-79.03 10.16,-17.67 19.8,-33.34 31.33,-48.44 5.28,-6.91 12.33,-16.47 18.56,-22.23 5.67,-5.24 17.04,-14.46 24.69,-15.15 -3.01,22.67 -50.78,163.94 -58.43,185.39 -12.65,35.44 -36.37,96.42 -53.94,129.59 -10.17,19.21 -24.24,34.59 -17.17,39.27 7.96,2.07 10.94,-6.95 14.87,-13.64l31.28 -63.26c19.87,-47.26 97.77,-257 94.61,-285.06l-12.11 -3.73c3.94,-8.62 16.11,-18.96 27.42,-22.09l-9.52 71.74c-16.71,115.52 -48.86,272.08 -138.84,354.49 -6.08,5.56 -39.09,33.94 -47.55,34.77 -2.11,2.74 -0.43,0.96 -3.21,3.3 -28.31,23.8 -120.87,56.27 -152.6,67.88 -95.64,22.7 -183.85,84.03 -183.03,192.8 -7.3,-1.71 -7.46,-6.34 -16.28,-15.02l-15.28 -18.09c-57.47,-78.08 -88.28,-211.56 -4.33,-285.36 45.3,-39.82 60.07,-49.32 120.83,-66.61 58.09,-16.53 121.83,-26.44 177.92,-44.74 55.86,-18.22 99.93,-46.65 129.23,-96.78z"/>
    <path class="fil1" d="M1075.3 506.61c-17.88,17.24 -48,32.62 -84.34,72.78 -6.2,6.85 -21.55,21.79 -24.81,29.39 5.93,-1.27 21.33,-9.92 29.75,-13.21 46.77,-18.26 98.56,-29.11 147.48,-40.13 8,-1.54 26.5,-5.17 32.87,-7.94 47.61,-20.74 112.03,-144.14 40.2,-176.85 -59.74,78.54 -51.85,76.21 -141.15,135.96z"/>
    <path class="fil2" d="M1456.29 497.56c2.72,-17.41 11.74,-42.48 16.39,-62.47 10.09,-43.43 16.31,-88.25 23.06,-132.67 4,-26.32 0.52,-45.04 25.9,-51.74 -0.17,30.18 -44.21,201.5 -60.95,239.26 -0.94,2.12 -0.86,2.08 -1.91,3.93 -2.2,3.87 -0.97,1.81 -2.48,3.69z"/>
    <path class="fil0" d="M190.79 449.07c-11.91,-20.38 -26.5,-52.86 -41.54,-79.03 -10.16,-17.67 -19.8,-33.34 -31.33,-48.44 -5.28,-6.91 -12.34,-16.47 -18.57,-22.23 -5.67,-5.24 -17.04,-14.46 -24.69,-15.15 3.01,22.67 50.78,163.94 58.43,185.39 12.65,35.44 36.38,96.42 53.94,129.59 10.17,19.21 24.24,34.59 17.18,39.27 -7.96,2.07 -10.94,-6.95 -14.87,-13.64l-31.28 -63.26c-19.87,-47.26 -97.77,-257 -94.61,-285.06l12.11 -3.73c-3.94,-8.62 -16.11,-18.96 -27.42,-22.09l9.52 71.74c16.71,115.52 48.86,272.08 138.84,354.49 6.07,5.56 39.09,33.94 47.54,34.77 2.11,2.74 0.43,0.96 3.21,3.3 28.31,23.8 120.87,56.27 152.6,67.88 95.64,22.7 183.85,84.03 183.03,192.8 7.3,-1.71 7.46,-6.34 16.27,-15.02l15.28 -18.09c57.47,-78.08 88.28,-211.56 4.33,-285.36 -45.3,-39.82 -60.07,-49.32 -120.83,-66.61 -58.09,-16.53 -121.83,-26.44 -177.92,-44.74 -55.86,-18.22 -99.93,-46.65 -129.24,-96.78z"/>
    <path class="fil3" style="mask:url(#id0)" d="M190.79 449.07c-11.91,-20.38 -26.5,-52.86 -41.54,-79.03 -10.16,-17.67 -19.8,-33.34 -31.33,-48.44 -5.28,-6.91 -12.34,-16.47 -18.57,-22.23 -5.67,-5.24 -17.04,-14.46 -24.69,-15.15 3.01,22.67 50.78,163.94 58.43,185.39 12.65,35.44 36.38,96.42 53.94,129.59 10.17,19.21 24.24,34.59 17.18,39.27 -7.96,2.07 -10.94,-6.95 -14.87,-13.64l-31.28 -63.26c-19.87,-47.26 -97.77,-257 -94.61,-285.06l12.11 -3.73c-3.94,-8.62 -16.11,-18.96 -27.42,-22.09l9.52 71.74c16.71,115.52 48.86,272.08 138.84,354.49 6.07,5.56 39.09,33.94 47.54,34.77 2.11,2.74 0.43,0.96 3.21,3.3 28.31,23.8 120.87,56.27 152.6,67.88 95.64,22.7 183.85,84.03 183.03,192.8 7.3,-1.71 7.46,-6.34 16.27,-15.02l15.28 -18.09c57.47,-78.08 88.28,-211.56 4.33,-285.36 -45.3,-39.82 -60.07,-49.32 -120.83,-66.61 -58.09,-16.53 -121.83,-26.44 -177.92,-44.74 -55.86,-18.22 -99.93,-46.65 -129.24,-96.78z"/>
    <path class="fil3" style="mask:url(#id2)" d="M1349.16 449.07c11.91,-20.38 26.5,-52.86 41.54,-79.03 10.16,-17.67 19.8,-33.34 31.33,-48.44 5.28,-6.91 12.33,-16.47 18.56,-22.23 5.67,-5.24 17.04,-14.46 24.69,-15.15 -3.01,22.67 -50.78,163.94 -58.43,185.39 -12.65,35.44 -36.37,96.42 -53.94,129.59 -10.17,19.21 -24.24,34.59 -17.17,39.27 7.96,2.07 10.94,-6.95 14.87,-13.64l31.28 -63.26c19.87,-47.26 97.77,-257 94.61,-285.06l-12.11 -3.73c3.94,-8.62 16.11,-18.96 27.42,-22.09l-9.52 71.74c-16.71,115.52 -48.86,272.08 -138.84,354.49 -6.08,5.56 -39.09,33.94 -47.55,34.77 -2.11,2.74 -0.43,0.96 -3.21,3.3 -28.31,23.8 -120.87,56.27 -152.6,67.88 -95.64,22.7 -183.85,84.03 -183.03,192.8 -7.3,-1.71 -7.46,-6.34 -16.28,-15.02l-15.28 -18.09c-57.47,-78.08 -88.28,-211.56 -4.33,-285.36 45.3,-39.82 60.07,-49.32 120.83,-66.61 58.09,-16.53 121.83,-26.44 177.92,-44.74 55.86,-18.22 99.93,-46.65 129.23,-96.78z"/>
    <path class="fil1" d="M464.65 506.61c17.88,17.24 48.01,32.62 84.34,72.78 6.2,6.85 21.55,21.79 24.81,29.39 -5.93,-1.27 -21.33,-9.92 -29.75,-13.21 -46.77,-18.26 -98.56,-29.11 -147.49,-40.13 -8,-1.54 -26.5,-5.17 -32.86,-7.94 -47.61,-20.74 -112.04,-144.14 -40.2,-176.85 59.74,78.54 51.84,76.21 141.15,135.96z"/>
    <path class="fil2" d="M83.67 497.56c-2.72,-17.41 -11.74,-42.48 -16.39,-62.47 -10.09,-43.43 -16.31,-88.25 -23.06,-132.67 -4,-26.32 -0.52,-45.04 -25.9,-51.74 0.17,30.18 44.21,201.5 60.95,239.26 0.94,2.12 0.86,2.08 1.91,3.93 2.2,3.87 0.97,1.81 2.48,3.69z"/>
    <g>
     <path class="fil4" d="M1076.54 328.57c0,169.46 -137.37,306.83 -306.83,306.83 -169.46,0 -306.83,-137.37 -306.83,-306.83 0,-169.46 137.37,-306.83 306.83,-306.83 169.46,0 306.83,137.37 306.83,306.83z"/>
     <path class="fil5" style="mask:url(#id4)" d="M1076.54 328.57c0,169.46 -137.37,306.83 -306.83,306.83 -169.46,0 -306.83,-137.37 -306.83,-306.83 0,-169.46 137.37,-306.83 306.83,-306.83 169.46,0 306.83,137.37 306.83,306.83z"/>
     <path class="fil6" style="mask:url(#id6)" d="M1076.54 328.57c0,169.46 -137.37,306.83 -306.83,306.83 -169.46,0 -306.83,-137.37 -306.83,-306.83 0,-169.46 137.37,-306.83 306.83,-306.83 169.46,0 306.83,137.37 306.83,306.83z"/>
     <g>
      <polygon class="fil7" points="798.88,15.72 774.42,259.72 769.47,12.96 764.76,260.77 743.76,14.56 757.78,322.2 769.93,321.42 769.93,321.39 779.72,322.2 "/>
      <polygon class="fil8" points="690.12,24.61 750.59,262.26 661.54,32.07 741.87,266.56 637.93,42.37 756.32,326.67 767.47,321.77 767.46,321.75 776.94,319.16 "/>
      <polygon class="fil9" points="590.96,70.17 729.06,272.8 566.66,86.95 722.33,279.81 547.98,104.7 756.48,331.36 765.28,322.95 765.26,322.93 773.28,317.26 "/>
      <polygon class="fil10" points="513.35,146.88 712.44,290.06 496.26,170.96 708.52,298.96 484.79,194.03 758.22,335.71 763.62,324.8 763.59,324.79 769.2,316.71 "/>
      <polygon class="fil11" points="466.67,245.52 702.72,311.97 458.85,273.99 702.07,321.67 455.95,299.59 761.36,339.21 762.7,327.11 762.67,327.11 765.17,317.6 "/>
      <polygon class="fil12" points="456.54,354.17 701.08,335.88 458.93,383.6 703.79,345.22 464.96,408.65 765.5,341.42 762.62,329.59 762.59,329.6 761.69,319.81 "/>
      <polygon class="fil13" points="484.18,459.73 707.72,358.91 496.49,486.57 713.46,366.76 510.73,508.05 770.15,342.08 763.39,331.95 763.37,331.97 759.18,323.08 "/>
      <polygon class="fil14" points="546.26,549.48 721.84,378.28 567,570.49 729.91,383.69 587.73,585.8 774.74,341.11 764.93,333.91 764.92,333.93 757.94,327.01 "/>
      <polygon class="fil15" points="635.29,612.57 741.72,391.65 661.97,625.23 751.16,393.98 686.68,632.52 778.73,338.63 767.04,335.22 767.04,335.24 758.11,331.13 "/>
      <polygon class="fil16" points="740.53,641.42 764.98,397.42 769.93,644.19 774.65,396.37 795.65,642.59 781.62,334.94 769.48,335.72 769.48,335.75 759.68,334.94 "/>
      <polygon class="fil17" points="849.29,632.53 788.81,394.88 877.86,625.07 797.54,390.59 901.48,614.78 783.08,330.48 771.94,335.37 771.95,335.39 762.46,337.98 "/>
      <polygon class="fil18" points="948.45,586.98 810.34,384.35 972.75,570.2 817.07,377.33 991.42,552.45 782.93,325.79 774.13,334.2 774.15,334.21 766.12,339.89 "/>
      <polygon class="fil19" points="1026.05,510.26 826.96,367.08 1043.15,486.18 830.89,358.19 1054.62,463.11 781.18,321.43 775.79,332.34 775.81,332.35 770.2,340.43 "/>
      <polygon class="fil20" points="1072.73,411.63 836.68,345.18 1080.56,383.15 837.33,335.48 1083.45,357.55 778.04,317.94 776.71,330.04 776.74,330.04 774.23,339.55 "/>
      <polygon class="fil21" points="1082.87,302.98 838.32,321.26 1080.48,273.54 835.61,311.93 1074.44,248.5 773.9,315.72 776.79,327.55 776.81,327.54 777.71,337.33 "/>
      <polygon class="fil22" points="1055.22,197.41 831.69,298.24 1042.92,170.57 825.95,290.39 1028.68,149.1 769.25,315.06 776.01,325.19 776.03,325.17 780.23,334.07 "/>
      <polygon class="fil23" points="993.15,107.67 817.57,278.87 972.4,86.65 809.5,273.45 951.68,71.35 764.66,316.03 774.47,323.24 774.49,323.21 781.47,330.14 "/>
      <polygon class="fil24" points="904.12,44.57 797.69,265.49 877.43,31.91 788.25,263.17 852.72,24.62 760.68,318.51 772.36,321.93 772.37,321.9 781.3,326.02 "/>
     </g>
     <path class="fil25" d="M905.03 328.57c0,74.74 -60.59,135.33 -135.32,135.33 -74.74,0 -135.33,-60.59 -135.33,-135.33 0,-74.74 60.59,-135.33 135.33,-135.33 74.74,0 135.32,60.59 135.32,135.33z"/>
     <g>
      <path class="fil26" d="M862.15 328.57c0,51.06 -41.39,92.45 -92.45,92.45 -51.06,0 -92.45,-41.39 -92.45,-92.45 0,-51.06 41.39,-92.45 92.45,-92.45 51.06,0 92.45,41.39 92.45,92.45z"/>
     </g>
     <g>
      <path class="fil27" style="mask:url(#id8)" d="M878.35 258.12c0,28.12 -22.8,50.92 -50.92,50.92 -28.12,0 -50.91,-22.8 -50.91,-50.92 0,-28.12 22.8,-50.92 50.91,-50.92 28.12,0 50.92,22.8 50.92,50.92z"/>
     </g>
     <path class="fil28" style="mask:url(#id10)" d="M768.92 52.67c-151.7,0 -274.68,122.98 -274.68,274.68 0,151.7 122.98,274.67 274.68,274.67 151.7,0 274.68,-122.98 274.68,-274.67 0,-151.7 -122.98,-274.68 -274.68,-274.68zm0 530.59l0 0c-141.34,0 -255.92,-114.57 -255.92,-255.91 0,-141.34 114.58,-255.92 255.92,-255.92 141.34,0 255.92,114.58 255.92,255.92 0,141.34 -114.58,255.91 -255.92,255.91z"/>
     <path class="fil4" style="mask:url(#id12)" d="M780.22 613.8l0 -173.54c-22.66,0.23 -44.87,-5.2 -64.25,-19.16 -11.62,-8.37 -21.34,-18.08 -29.44,-28.78 -38.41,43.35 -77,86.62 -117.51,127.99 52.28,57.33 127.52,93.36 211.2,93.5z"/>
     <path class="fil4" style="mask:url(#id14)" d="M680.67 384.02c-11.21,-17.23 -18.63,-36.65 -22.96,-57.12l-163.46 0c0,0.16 -0.01,0.31 -0.01,0.47 0,63.1 20.42,121.42 54.99,168.75 45.18,-36.82 88.85,-74.11 131.43,-112.09z"/>
     <path class="fil29" d="M724.06 347.6c13.46,-0.77 24.98,9.46 25.75,22.87 0.76,13.41 -9.52,24.89 -22.97,25.66 -13.46,0.77 -24.98,-9.46 -25.75,-22.88 -0.76,-13.4 9.52,-24.89 22.97,-25.65z"/>
    </g>
    <path class="fil2" d="M451.54 303.63c5.96,-103.66 62.34,-202.39 158.98,-258.19 152.55,-88.08 347.61,-35.81 435.69,116.74 24.28,42.06 37.88,87.34 41.67,132.72l-11.58 6.69c-2.57,-45.8 -15.54,-91.53 -39.91,-133.74 -84.94,-147.12 -275.97,-195.85 -426.69,-108.83 -93.09,53.74 -149,146.71 -158.15,244.6z"/>
   </g>
   <polygon class="fil30" points="1805.62,1016.79 7953.78,1016.79 7953.78,1417.35 1805.62,1417.35 "/>
   <path class="fil31" d="M2653.68 1337.23l-54.87 0c0,-3.61 -2.85,-10.32 -8.48,-20.13 -5.69,-9.81 -10.69,-17.02 -15.06,-21.58l-2.78 0c-23.48,31.39 -52.54,47.09 -87.16,47.09 -22.97,0 -41.2,-5.82 -54.55,-17.41 -13.42,-11.64 -20.13,-27.41 -20.13,-47.34 0,-15.89 4.49,-30.7 13.54,-44.37 8.99,-13.67 22.09,-24.18 39.31,-31.46l0 -2.59c-21.9,-16.65 -32.85,-34.11 -32.85,-52.28 0,-17.53 7.09,-31.21 21.26,-40.89 14.12,-9.69 30.51,-14.56 49.18,-14.56 17.85,0 33.23,4.49 46.2,13.41 12.97,8.99 19.43,21.65 19.43,37.98 0,22.59 -12.09,39.43 -36.33,50.38l0 2.78c11.26,6.07 26.96,19.12 47.09,39.18l2.79 0c5.06,-8.29 7.59,-21.45 7.59,-39.5l46.58 0c0,5.06 -3.92,14.63 -11.71,28.74 -7.79,14.04 -14.94,24.36 -21.52,30.94l0 2.59c9.93,9.11 21.13,23.17 33.67,42.09 12.54,18.93 18.8,31.2 18.8,36.9zm-95.63 -62.66l0 -2.78c-7.41,-8.42 -17.28,-18.54 -29.62,-30.32 -12.28,-11.83 -25.38,-21.01 -39.37,-27.53 -20.88,9.5 -31.32,26.65 -31.32,51.33 0,12.72 3.73,23.04 11.32,30.82 7.78,8.17 18.42,12.22 31.84,12.22 19.3,0 38.35,-11.26 57.15,-33.74zm-29.5 -124.24c0,-8.92 -2.53,-15.89 -7.59,-20.95 -5.06,-5.06 -11.65,-7.59 -19.68,-7.59 -7.78,0 -14.37,2.21 -19.75,6.77 -5.38,4.49 -8.04,10.25 -8.04,17.34 0,14.69 10.82,26.9 32.48,36.71 15.06,-7.09 22.59,-17.85 22.59,-32.28zm593.31 180.57c-29.37,7.6 -53.99,11.33 -73.8,11.33 -42.47,0 -74.75,-11.65 -96.65,-34.94 -21.96,-23.29 -32.92,-51.59 -32.92,-84.81 0,-35 11.97,-65.44 35.83,-91.26 23.92,-25.83 57.09,-38.74 99.49,-38.74 19.94,0 37.47,1.77 52.66,5.38l-6.08 43.73c-19.43,-5.06 -36.83,-7.59 -52.34,-7.59 -26.07,0 -45.51,8.04 -58.36,23.99 -12.91,16.01 -19.3,35.57 -19.3,58.73 0,23.61 7.22,44.18 21.58,61.71 14.43,17.59 34.31,26.33 59.63,26.33 7.03,0 15.19,-0.69 24.49,-2.22 -1.83,-13.73 -2.78,-27.21 -2.78,-40.44 0,-13.29 -1.33,-28.35 -3.93,-45l52.47 0c-0.95,18.99 -1.45,38.17 -1.45,57.47 0,13.93 0.5,32.72 1.45,56.33zm282.22 -34.11l-1.52 40.44 -154.06 0c1.45,-33.48 2.22,-75.57 2.22,-126.27 0,-46.52 -0.76,-84.88 -2.22,-115.13l52.09 0c-1.45,28.04 -2.21,66.39 -2.21,115.13 0,37.22 -0.83,66.78 -2.4,88.61 34.11,0 70.13,-0.88 108.1,-2.78zm320.71 40.44l-59.31 0c0,-8.16 -5.63,-31.27 -16.9,-69.37l-85.7 0c-11.58,37.47 -17.41,60.57 -17.41,69.37l-55.82 0c0,-4.81 14.43,-44.36 43.29,-118.67 28.87,-74.3 43.3,-115.19 43.3,-122.72l70.12 0c0,7.03 13.04,47.34 39.18,120.95 26.2,73.61 39.24,113.8 39.24,120.44zm-85.63 -104.74c-21.14,-63.8 -31.71,-98.3 -31.71,-103.48l-2.97 0c0,4.81 -10.95,39.31 -32.85,103.48l67.53 0zm392.61 -136.65c-1.13,41.52 -1.65,83.04 -1.65,124.56 0,82.09 -33.67,123.17 -100.89,123.17 -33.28,0 -58.28,-9.11 -75.12,-27.28 -16.78,-18.17 -25.19,-50.83 -25.19,-97.91 0,-41.52 -0.57,-82.4 -1.71,-122.53l52.54 0c-1.65,41.78 -2.47,82.03 -2.47,120.89 0,33.99 4.37,57.28 13.04,69.87 8.61,12.59 21.96,18.93 40,18.93 18.93,0 32.6,-6.27 41.02,-18.8 8.42,-12.59 12.59,-36.01 12.59,-70.38 0,-37.72 -0.82,-77.91 -2.4,-120.51l50.25 0zm303.62 197.47l-3.1 42.59c-17.59,4.24 -34.87,6.33 -51.96,6.33 -42.41,0 -74.68,-11.71 -96.9,-35.13 -22.16,-23.42 -33.23,-51.9 -33.23,-85.38 0,-34.75 11.77,-65 35.32,-90.7 23.55,-25.7 55.82,-38.54 96.84,-38.54 15.13,0 29.37,1.71 42.85,5.19l-6.45 42.85c-14.63,-4.74 -28.55,-7.09 -41.9,-7.09 -25.13,0 -43.8,7.98 -56.02,23.86 -12.28,15.89 -18.36,35.19 -18.36,57.91 0,23.23 7.28,43.42 21.78,60.45 14.49,17.08 34.87,25.63 61.07,25.63 15.38,0 32.03,-2.65 50.06,-7.97zm342.04 -81.27c0,37.98 -11.65,69.43 -34.88,94.43 -23.23,24.94 -51.96,37.41 -86.2,37.41 -32.66,0 -59.94,-11.46 -81.96,-34.37 -22.03,-22.91 -32.98,-52.09 -32.98,-87.41 0,-37.98 11.59,-69.43 34.82,-94.43 23.29,-24.94 52.02,-37.41 86.26,-37.41 32.6,0 59.94,11.39 81.96,34.3 21.96,22.85 32.98,52.03 32.98,87.47zm-51.21 5.38c0,-25.82 -6.58,-46.78 -19.81,-62.85 -13.23,-16.08 -29.55,-24.12 -48.93,-24.12 -18.1,0 -33.42,8.1 -46.01,24.3 -12.59,16.2 -18.92,36.65 -18.92,61.39 0,25.7 6.65,46.65 19.94,62.79 13.29,16.08 29.56,24.18 48.86,24.18 18.04,0 33.35,-8.1 46.01,-24.37 12.59,-16.26 18.86,-36.71 18.86,-61.33zm452.43 119.81l-53.93 0c0,-21.01 -1.33,-56.45 -3.93,-106.33 -2.59,-49.87 -3.92,-81.01 -4.05,-93.36l-2.78 0c-1.27,7.41 -4.55,21.14 -9.87,41.14 -5.32,20.07 -15.25,49.56 -29.94,88.55 -14.62,38.98 -21.96,62.33 -21.96,70l-40.95 0c0,-7.91 -7.03,-31.45 -21.08,-70.63 -14.05,-39.18 -23.22,-66.65 -27.53,-82.34 -4.31,-15.7 -7.79,-31.27 -10.38,-46.72l-2.78 0c-0.13,15.44 -1.65,48.55 -4.56,99.37 -2.91,50.82 -4.37,84.24 -4.37,100.31l-48.93 0c0,-3.73 4.5,-40.89 13.42,-111.46 8.99,-70.57 13.48,-113.93 13.48,-129.94l71.78 0c0,13.8 7.53,44.37 22.72,91.58 15.13,47.22 22.66,77.4 22.66,90.64l2.78 0c0,-13.36 8.67,-43.61 25.89,-90.83 17.28,-47.22 25.89,-77.72 25.89,-91.39l71.2 0c0,25.57 2.85,71.2 8.6,136.9 5.76,65.7 8.61,100.51 8.61,104.5zm341.34 0l-59.31 0c0,-8.16 -5.63,-31.27 -16.9,-69.37l-85.7 0c-11.58,37.47 -17.41,60.57 -17.41,69.37l-55.82 0c0,-4.81 14.43,-44.36 43.29,-118.67 28.87,-74.3 43.3,-115.19 43.3,-122.72l70.12 0c0,7.03 13.04,47.34 39.18,120.95 26.2,73.61 39.24,113.8 39.24,120.44zm-85.63 -104.74c-21.14,-63.8 -31.71,-98.3 -31.71,-103.48l-2.98 0c0,4.81 -10.95,39.31 -32.85,103.48l67.53 0zm533.37 60.82l-3.1 42.59c-17.59,4.24 -34.87,6.33 -51.96,6.33 -42.41,0 -74.69,-11.71 -96.9,-35.13 -22.15,-23.42 -33.23,-51.9 -33.23,-85.38 0,-34.75 11.78,-65 35.32,-90.7 23.55,-25.7 55.82,-38.54 96.84,-38.54 15.13,0 29.37,1.71 42.85,5.19l-6.46 42.85c-14.63,-4.74 -28.55,-7.09 -41.9,-7.09 -25.13,0 -43.8,7.98 -56.01,23.86 -12.28,15.89 -18.36,35.19 -18.36,57.91 0,23.23 7.28,43.42 21.78,60.45 14.5,17.08 34.87,25.63 61.08,25.63 15.38,0 32.03,-2.65 50.06,-7.97zm277.67 3.1l-1.45 40.82 -157.79 0c1.59,-37.34 2.41,-79.43 2.41,-126.27 0,-45 -0.82,-83.42 -2.41,-115.13l150.57 0 -2.02 40.57c-37.09,-1.96 -70.76,-2.98 -100.89,-2.98 1.2,17.21 1.84,37.47 1.84,60.82 25.82,0 53.48,-0.69 82.91,-2.02l0 38.74c-28.92,-1.2 -56.58,-1.83 -82.91,-1.83 0,25.06 0.5,48.61 1.52,70.44 33.87,0 69.94,-1.01 108.23,-3.16zm321.46 40.82l-45.76 0c0,-5.06 -17.03,-31.83 -51.01,-80.32 -35.57,-51.01 -55.89,-85.95 -60.82,-104.74l-2.98 0c3.1,27.09 4.69,51.58 4.69,73.41 0,30.57 0.82,67.79 2.59,111.65l-45.63 0c1.84,-38.29 2.78,-80.44 2.78,-126.27 0,-45.13 -0.94,-83.48 -2.78,-115.13l55.06 0c0,6.52 15.25,32.66 45.83,78.42 32.47,48.55 51.14,81.52 55.95,98.8l2.78 0c-2.97,-27.54 -4.43,-52.28 -4.43,-74.18 0,-33.48 -0.89,-67.85 -2.59,-103.04l46.33 0c-1.71,30.63 -2.59,68.98 -2.59,115.13 0,46.46 0.88,88.54 2.59,126.27zm303.88 -241.39l-1.33 39.81c-24.69,-1.84 -47.98,-2.78 -69.87,-2.78 -0.26,23.42 -0.38,49.43 -0.38,78.1 0,44.5 0.7,86.58 2.03,126.27l-51.9 0c1.58,-39.3 2.41,-81.39 2.41,-126.27 0,-28.17 -0.26,-54.24 -0.76,-78.1 -17.41,0 -41.33,1.01 -71.78,2.97l1.52 -40 190.06 0zm271.54 200.57l-1.45 40.82 -157.79 0c1.58,-37.34 2.41,-79.43 2.41,-126.27 0,-45 -0.82,-83.42 -2.41,-115.13l150.57 0 -2.03 40.57c-37.09,-1.96 -70.76,-2.98 -100.89,-2.98 1.2,17.21 1.84,37.47 1.84,60.82 25.82,0 53.48,-0.69 82.91,-2.02l0 38.74c-28.92,-1.2 -56.58,-1.83 -82.91,-1.83 0,25.06 0.5,48.61 1.52,70.44 33.87,0 69.94,-1.01 108.23,-3.16zm317.98 40.82l-54.87 0c-14.37,-43.74 -25.39,-70.76 -33.04,-81.01 -7.66,-10.25 -20,-15.39 -37.09,-15.39 -7.15,0 -14.05,0.07 -20.57,0.13 0,31.77 0.57,63.86 1.65,96.26l-51.52 0c1.58,-37.34 2.41,-79.43 2.41,-126.27 0,-45 -0.82,-83.42 -2.41,-115.13l32.09 0c3.67,0 11.46,-0.19 23.23,-0.57 11.83,-0.38 22.72,-0.57 32.72,-0.57 56.77,0 85.13,19.43 85.13,58.23 0,30.76 -16.2,52.22 -48.55,64.3l0 2.79c12.47,3.48 23.43,13.22 32.79,29.24 9.43,16.02 22.09,45.32 38.04,87.98zm-69.56 -170.57c0,-24.62 -15.82,-36.91 -47.47,-36.91 -11.58,0 -21.89,0.83 -30.76,2.6 1.33,19.11 2.02,44.11 2.02,74.87 6.77,0.26 12.53,0.38 17.29,0.38 39.3,0 58.92,-13.67 58.92,-40.94z"/>
   <path class="fil32" d="M2530.83 391.62c0,98.78 -30.29,180.61 -90.71,245.63 -60.42,64.87 -135.17,97.3 -224.23,97.3 -84.95,0 -155.9,-29.8 -213.2,-89.39 -57.3,-59.61 -85.78,-135.5 -85.78,-227.36 0,-98.78 30.13,-180.61 90.55,-245.63 60.59,-64.87 135.33,-97.3 224.4,-97.3 84.78,0 155.9,29.63 213.2,89.23 57.13,59.43 85.77,135.32 85.77,227.52zm-133.19 13.99c0,-67.17 -17.12,-121.66 -51.53,-163.48 -34.41,-41.81 -76.89,-62.72 -127.26,-62.72 -47.09,0 -86.93,21.07 -119.69,63.22 -32.76,42.15 -49.22,95.32 -49.22,159.69 0,66.84 17.29,121.34 51.86,163.32 34.57,41.81 76.88,62.89 127.09,62.89 46.92,0 86.76,-21.07 119.69,-63.39 32.76,-42.31 49.06,-95.49 49.06,-159.54zm711.9 62.73c0,69.8 -19.93,131.05 -59.77,183.73 -39.84,52.85 -94.33,79.19 -163.48,79.19 -51.53,0 -86.76,-10.86 -106.19,-32.76l-5.76 0c0,78.69 1.15,158.54 3.45,239.21l-131.21 0c5.77,-92.36 8.73,-198.71 8.73,-319.39 0,-155.58 -8.4,-274.28 -25.19,-355.93l123.47 -13.5 7.25 41.49 7.74 0c34.41,-31.78 81.17,-47.75 140.43,-47.75 61.74,0 110.47,22.22 146.53,66.84 36.06,44.45 54,97.46 54,158.87zm-128.25 12.51c0,-40.5 -10.04,-75.4 -30.46,-104.54 -20.25,-29.31 -48.08,-43.96 -83.8,-43.96 -44.45,0 -76.88,13.01 -97.46,39.02 4.78,90.38 7.25,173.19 7.25,248.43 20.25,15.8 46.43,23.71 78.53,23.71 42.8,0 74.57,-15.81 95.16,-47.58 20.58,-31.61 30.79,-69.97 30.79,-115.08zm630.73 235.92l-113.76 3.95c-5.27,-13.67 -7.74,-25.85 -7.74,-36.71l-6.26 0c-35.39,30.13 -83.13,45.28 -143.39,45.28 -40.17,0 -73.43,-11.2 -99.93,-33.43 -26.67,-22.39 -39.85,-52.02 -39.85,-89.07 0,-48.9 20.59,-88.9 61.91,-120.02 41.32,-31.28 113.76,-47.74 217.31,-49.72 0.66,-5.76 0.99,-11.36 0.99,-16.46 0,-34.73 -8.4,-57.62 -25.02,-68.65 -16.8,-11.2 -47.41,-16.63 -92.19,-16.63 -48.57,0 -95.98,6.42 -142.25,19.26l10.54 -88.74c43.79,-15.15 105.53,-22.72 185.22,-22.72 58.28,0 103.22,12.18 134.83,36.71 31.78,24.37 47.58,67.17 47.58,128.25 0,13.5 -0.66,38.19 -1.81,73.75 -0.98,35.72 -1.65,59.6 -1.65,71.45 0,66.52 5.1,121.01 15.47,163.48zm-128.74 -100.26c-1.98,-43.46 -2.96,-81 -2.96,-112.44 -109.64,0 -164.47,27.82 -164.47,83.47 0,38.2 24.2,57.46 72.44,57.46 37.86,0 69.48,-9.55 94.99,-28.49zm388.06 100.76l-131.71 0c4.94,-110.31 7.25,-229.83 7.25,-358.41 0,-125.28 -4.94,-231.96 -14.82,-319.72l139.28 -7.74c-4.78,91.04 -7.25,200.19 -7.25,327.45 0,129.24 2.47,248.76 7.25,358.41zm777.42 -106.19l-3.78 106.19 -410.43 0c4.12,-97.13 6.25,-206.61 6.25,-328.44 0,-117.06 -2.13,-216.98 -6.25,-299.47l391.66 0 -5.27 105.53c-96.47,-5.1 -184.06,-7.74 -262.42,-7.74 3.13,44.78 4.77,97.46 4.77,158.22 67.17,0 139.11,-1.81 215.67,-5.27l0 100.76c-75.23,-3.13 -147.18,-4.78 -215.67,-4.78 0,65.19 1.31,126.44 3.95,183.23 88.08,0 181.92,-2.63 281.52,-8.23zm526.69 -351.99c0,20.91 -23.05,87.09 -68.98,198.71 -52.35,128.25 -84.78,215.67 -96.97,262.43 -20.91,80.35 -49.06,135.82 -84.46,166.28 -34.08,29.64 -85.11,44.46 -153.27,44.46l-9.71 -93.18c39.84,0 72.77,-11.2 98.45,-33.91 25.68,-22.72 38.52,-53.02 38.52,-90.88 0,-38.37 -28.98,-122 -86.76,-251.07 -57.95,-129.08 -86.76,-196.74 -86.76,-202.83l148.99 0c0,11.2 14.65,65.69 43.79,163.48 29.31,97.8 43.96,157.56 43.96,179.45l6.75 0c0,-18.6 13.34,-73.75 39.85,-165.29 26.5,-91.37 39.67,-150.64 39.67,-177.64l126.93 0zm511.7 179.94c0,16.3 -0.98,37.7 -2.8,64.04l-310.66 5.27c4.44,36.39 20.08,66.68 46.76,90.71 26.67,24.2 61.74,36.22 105.2,36.22 48.23,0 99.43,-7.24 153.76,-21.73l-9.55 93.51c-44.45,16.13 -99.44,24.2 -164.96,24.2 -82.98,0 -146.53,-23.37 -190.81,-69.96 -44.28,-46.6 -66.35,-102.74 -66.35,-168.26 0,-68.48 21.07,-127.92 62.89,-178.29 41.98,-50.21 100.26,-75.41 174.84,-75.41 68.31,0 118.86,18.44 151.95,55.48 33.25,36.87 49.72,84.94 49.72,144.22zm-112.77 -4.44c0,-73.93 -31.61,-110.97 -94.67,-110.97 -60.09,0 -95.82,38.36 -107.01,114.91l201.68 -3.94zm901.72 168.42l-8.07 110.8c-45.77,11.03 -90.71,16.46 -135.17,16.46 -110.31,0 -194.27,-30.46 -252.05,-91.37 -57.63,-60.91 -86.44,-135 -86.44,-222.08 0,-90.39 30.62,-169.08 91.87,-235.93 61.24,-66.84 145.21,-100.26 251.89,-100.26 39.34,0 76.39,4.44 111.46,13.5l-16.8 111.46c-38.03,-12.35 -74.25,-18.44 -108.98,-18.44 -65.36,0 -113.93,20.75 -145.7,62.07 -31.94,41.33 -47.75,91.54 -47.75,150.64 0,60.42 18.93,112.94 56.63,157.22 37.7,44.44 90.71,66.68 158.87,66.68 40,0 83.31,-6.92 130.23,-20.74zm495.23 113.76l-113.76 3.95c-5.27,-13.67 -7.74,-25.85 -7.74,-36.71l-6.26 0c-35.4,30.13 -83.14,45.28 -143.39,45.28 -40.17,0 -73.43,-11.2 -99.93,-33.43 -26.67,-22.39 -39.85,-52.02 -39.85,-89.07 0,-48.9 20.58,-88.9 61.91,-120.02 41.32,-31.28 113.76,-47.74 217.31,-49.72 0.65,-5.76 0.98,-11.36 0.98,-16.46 0,-34.73 -8.4,-57.62 -25.02,-68.65 -16.8,-11.2 -47.42,-16.63 -92.19,-16.63 -48.57,0 -95.98,6.42 -142.25,19.26l10.54 -88.74c43.79,-15.15 105.53,-22.72 185.21,-22.72 58.28,0 103.22,12.18 134.83,36.71 31.78,24.37 47.58,67.17 47.58,128.25 0,13.5 -0.66,38.19 -1.81,73.75 -0.98,35.72 -1.65,59.6 -1.65,71.45 0,66.52 5.1,121.01 15.47,163.48zm-128.74 -100.26c-1.98,-43.46 -2.96,-81 -2.96,-112.44 -109.64,0 -164.47,27.82 -164.47,83.47 0,38.2 24.2,57.46 72.44,57.46 37.86,0 69.47,-9.55 94.99,-28.49zm562.24 -357.42l-27.98 112.77c-23.87,-9.55 -47.91,-14.49 -72.44,-14.49 -47.24,0 -78.36,21.24 -93.51,63.72 0,128.25 0.98,227.03 2.96,296.18l-128.41 0c5.59,-96.8 8.22,-175.83 8.22,-237.24 0,-76.56 -8.07,-149.16 -24.04,-217.65l122.98 -13.5c5.44,35.39 8.23,56.15 8.23,62.24l7.58 0c29.63,-45.28 68.98,-68 118.2,-68 23.21,0 49.22,5.27 78.2,15.97zm503.96 179.94c0,16.3 -0.98,37.7 -2.8,64.04l-310.66 5.27c4.44,36.39 20.08,66.68 46.75,90.71 26.67,24.2 61.74,36.22 105.2,36.22 48.24,0 99.44,-7.24 153.77,-21.73l-9.55 93.51c-44.45,16.13 -99.44,24.2 -164.96,24.2 -82.98,0 -146.53,-23.37 -190.82,-69.96 -44.28,-46.6 -66.35,-102.74 -66.35,-168.26 0,-68.48 21.07,-127.92 62.9,-178.29 41.98,-50.21 100.26,-75.41 174.84,-75.41 68.32,0 118.86,18.44 151.96,55.48 33.25,36.87 49.72,84.94 49.72,144.22zm-112.77 -4.44c0,-73.93 -31.61,-110.97 -94.67,-110.97 -60.09,0 -95.82,38.36 -107.01,114.91l201.68 -3.94z"/>
   <path class="fil6" d="M2501.73 362.87c0,98.78 -30.29,180.61 -90.71,245.63 -60.42,64.87 -135.17,97.3 -224.23,97.3 -84.95,0 -155.9,-29.8 -213.2,-89.39 -57.3,-59.6 -85.78,-135.5 -85.78,-227.36 0,-98.78 30.13,-180.61 90.55,-245.63 60.59,-64.87 135.33,-97.3 224.4,-97.3 84.78,0 155.9,29.63 213.2,89.23 57.13,59.43 85.77,135.32 85.77,227.52zm-133.19 13.99c0,-67.17 -17.12,-121.66 -51.53,-163.48 -34.41,-41.81 -76.89,-62.72 -127.26,-62.72 -47.09,0 -86.93,21.07 -119.69,63.22 -32.76,42.15 -49.22,95.32 -49.22,159.69 0,66.84 17.29,121.34 51.86,163.32 34.57,41.81 76.88,62.89 127.09,62.89 46.92,0 86.77,-21.07 119.69,-63.39 32.76,-42.31 49.06,-95.49 49.06,-159.53zm711.9 62.73c0,69.81 -19.93,131.05 -59.77,183.73 -39.84,52.85 -94.33,79.19 -163.48,79.19 -51.53,0 -86.76,-10.87 -106.19,-32.76l-5.76 0c0,78.69 1.15,158.54 3.45,239.21l-131.21 0c5.77,-92.36 8.73,-198.71 8.73,-319.39 0,-155.58 -8.4,-274.28 -25.19,-355.94l123.47 -13.5 7.25 41.49 7.74 0c34.41,-31.78 81.17,-47.75 140.43,-47.75 61.74,0 110.47,22.22 146.53,66.85 36.06,44.44 54,97.46 54,158.87zm-128.25 12.51c0,-40.5 -10.04,-75.4 -30.46,-104.54 -20.25,-29.31 -48.08,-43.96 -83.8,-43.96 -44.45,0 -76.88,13.01 -97.46,39.02 4.78,90.38 7.25,173.19 7.25,248.43 20.25,15.8 46.43,23.71 78.53,23.71 42.8,0 74.57,-15.81 95.16,-47.58 20.58,-31.61 30.79,-69.97 30.79,-115.08zm630.73 235.92l-113.76 3.95c-5.27,-13.67 -7.74,-25.85 -7.74,-36.71l-6.26 0c-35.39,30.12 -83.13,45.27 -143.39,45.27 -40.17,0 -73.43,-11.2 -99.93,-33.43 -26.67,-22.39 -39.85,-52.02 -39.85,-89.07 0,-48.9 20.59,-88.9 61.91,-120.02 41.32,-31.28 113.76,-47.74 217.31,-49.72 0.66,-5.76 0.99,-11.36 0.99,-16.46 0,-34.73 -8.4,-57.62 -25.02,-68.65 -16.8,-11.2 -47.41,-16.63 -92.19,-16.63 -48.57,0 -95.98,6.42 -142.25,19.26l10.54 -88.74c43.79,-15.15 105.53,-22.72 185.22,-22.72 58.28,0 103.22,12.18 134.83,36.71 31.78,24.37 47.58,67.17 47.58,128.25 0,13.5 -0.66,38.19 -1.81,73.75 -0.98,35.72 -1.65,59.6 -1.65,71.45 0,66.51 5.1,121.01 15.47,163.48zm-128.74 -100.26c-1.98,-43.46 -2.96,-81 -2.96,-112.44 -109.64,0 -164.47,27.82 -164.47,83.47 0,38.2 24.2,57.46 72.44,57.46 37.86,0 69.48,-9.55 94.99,-28.49zm388.06 100.76l-131.71 0c4.94,-110.31 7.24,-229.83 7.24,-358.41 0,-125.28 -4.94,-231.96 -14.81,-319.72l139.28 -7.74c-4.78,91.04 -7.25,200.19 -7.25,327.45 0,129.24 2.47,248.76 7.25,358.41zm777.42 -106.19l-3.78 106.19 -410.43 0c4.12,-97.13 6.25,-206.61 6.25,-328.44 0,-117.06 -2.13,-216.98 -6.25,-299.46l391.66 0 -5.27 105.53c-96.47,-5.1 -184.06,-7.74 -262.42,-7.74 3.13,44.78 4.77,97.46 4.77,158.22 67.17,0 139.11,-1.81 215.67,-5.27l0 100.76c-75.24,-3.13 -147.18,-4.78 -215.67,-4.78 0,65.19 1.31,126.44 3.95,183.23 88.08,0 181.92,-2.63 281.52,-8.22zm526.69 -351.99c0,20.91 -23.05,87.09 -68.98,198.71 -52.35,128.25 -84.78,215.67 -96.97,262.43 -20.91,80.35 -49.06,135.82 -84.46,166.28 -34.08,29.63 -85.11,44.45 -153.27,44.45l-9.71 -93.18c39.84,0 72.77,-11.2 98.45,-33.91 25.68,-22.72 38.52,-53.02 38.52,-90.88 0,-38.36 -28.97,-122 -86.76,-251.07 -57.95,-129.07 -86.76,-196.74 -86.76,-202.83l148.99 0c0,11.2 14.65,65.69 43.79,163.48 29.3,97.79 43.96,157.56 43.96,179.45l6.75 0c0,-18.6 13.34,-73.76 39.85,-165.3 26.5,-91.37 39.67,-150.64 39.67,-177.64l126.93 0zm511.7 179.95c0,16.3 -0.98,37.7 -2.8,64.04l-310.66 5.27c4.44,36.39 20.08,66.68 46.76,90.71 26.67,24.2 61.74,36.22 105.2,36.22 48.24,0 99.44,-7.25 153.77,-21.74l-9.55 93.51c-44.45,16.13 -99.44,24.2 -164.96,24.2 -82.98,0 -146.53,-23.37 -190.81,-69.96 -44.28,-46.6 -66.35,-102.74 -66.35,-168.26 0,-68.48 21.07,-127.92 62.9,-178.29 41.98,-50.21 100.26,-75.41 174.84,-75.41 68.32,0 118.86,18.44 151.96,55.48 33.25,36.87 49.72,84.94 49.72,144.22zm-112.77 -4.44c0,-73.93 -31.61,-110.97 -94.67,-110.97 -60.09,0 -95.82,38.36 -107.01,114.92l201.68 -3.95zm901.72 168.42l-8.07 110.79c-45.77,11.03 -90.71,16.46 -135.17,16.46 -110.31,0 -194.27,-30.45 -252.05,-91.37 -57.63,-60.91 -86.44,-135 -86.44,-222.08 0,-90.39 30.62,-169.08 91.86,-235.93 61.24,-66.83 145.21,-100.26 251.89,-100.26 39.34,0 76.39,4.44 111.46,13.5l-16.8 111.46c-38.03,-12.35 -74.25,-18.44 -108.98,-18.44 -65.36,0 -113.93,20.75 -145.7,62.07 -31.94,41.33 -47.75,91.54 -47.75,150.64 0,60.42 18.93,112.94 56.63,157.22 37.7,44.45 90.71,66.68 158.87,66.68 40,0 83.31,-6.92 130.23,-20.74zm495.23 113.76l-113.76 3.95c-5.27,-13.67 -7.74,-25.85 -7.74,-36.71l-6.26 0c-35.4,30.12 -83.14,45.27 -143.39,45.27 -40.17,0 -73.43,-11.2 -99.93,-33.43 -26.67,-22.39 -39.85,-52.02 -39.85,-89.07 0,-48.9 20.58,-88.9 61.91,-120.02 41.32,-31.28 113.76,-47.74 217.31,-49.72 0.65,-5.76 0.98,-11.36 0.98,-16.46 0,-34.73 -8.4,-57.62 -25.02,-68.65 -16.8,-11.2 -47.42,-16.63 -92.19,-16.63 -48.57,0 -95.98,6.42 -142.25,19.26l10.54 -88.74c43.79,-15.15 105.53,-22.72 185.21,-22.72 58.28,0 103.22,12.18 134.83,36.71 31.78,24.37 47.58,67.17 47.58,128.25 0,13.5 -0.66,38.19 -1.81,73.75 -0.99,35.72 -1.65,59.6 -1.65,71.45 0,66.51 5.11,121.01 15.47,163.48zm-128.74 -100.26c-1.98,-43.46 -2.96,-81 -2.96,-112.44 -109.64,0 -164.47,27.82 -164.47,83.47 0,38.2 24.2,57.46 72.44,57.46 37.86,0 69.47,-9.55 94.99,-28.49zm562.24 -357.42l-27.98 112.77c-23.87,-9.55 -47.91,-14.48 -72.44,-14.48 -47.24,0 -78.36,21.24 -93.51,63.71 0,128.25 0.98,227.03 2.96,296.18l-128.41 0c5.59,-96.8 8.22,-175.83 8.22,-237.24 0,-76.56 -8.07,-149.16 -24.04,-217.65l122.98 -13.5c5.44,35.4 8.23,56.15 8.23,62.24l7.58 0c29.63,-45.28 68.98,-68 118.2,-68 23.21,0 49.22,5.27 78.2,15.97zm503.96 179.95c0,16.3 -0.98,37.7 -2.8,64.04l-310.67 5.27c4.44,36.39 20.08,66.68 46.76,90.71 26.67,24.2 61.74,36.22 105.2,36.22 48.24,0 99.44,-7.25 153.77,-21.74l-9.55 93.51c-44.45,16.13 -99.44,24.2 -164.96,24.2 -82.98,0 -146.53,-23.37 -190.82,-69.96 -44.28,-46.6 -66.35,-102.74 -66.35,-168.26 0,-68.48 21.07,-127.92 62.9,-178.29 41.98,-50.21 100.26,-75.41 174.84,-75.41 68.32,0 118.86,18.44 151.96,55.48 33.25,36.87 49.72,84.94 49.72,144.22zm-112.77 -4.44c0,-73.93 -31.61,-110.97 -94.67,-110.97 -60.09,0 -95.82,38.36 -107.01,114.92l201.68 -3.95z"/>
   <path class="fil33" style="mask:url(#id16)" d="M2501.73 362.87c0,98.78 -30.29,180.61 -90.71,245.63 -60.42,64.87 -135.17,97.3 -224.23,97.3 -84.95,0 -155.9,-29.8 -213.2,-89.39 -57.3,-59.6 -85.78,-135.5 -85.78,-227.36 0,-98.78 30.13,-180.61 90.55,-245.63 60.59,-64.87 135.33,-97.3 224.4,-97.3 84.78,0 155.9,29.63 213.2,89.23 57.13,59.43 85.77,135.32 85.77,227.52zm-133.19 13.99c0,-67.17 -17.12,-121.66 -51.53,-163.48 -34.41,-41.81 -76.89,-62.72 -127.26,-62.72 -47.09,0 -86.93,21.07 -119.69,63.22 -32.76,42.15 -49.22,95.32 -49.22,159.69 0,66.84 17.29,121.34 51.86,163.32 34.57,41.81 76.88,62.89 127.09,62.89 46.92,0 86.77,-21.07 119.69,-63.39 32.76,-42.31 49.06,-95.49 49.06,-159.53zm711.9 62.73c0,69.81 -19.93,131.05 -59.77,183.73 -39.84,52.85 -94.33,79.19 -163.48,79.19 -51.53,0 -86.76,-10.87 -106.19,-32.76l-5.76 0c0,78.69 1.15,158.54 3.45,239.21l-131.21 0c5.77,-92.36 8.73,-198.71 8.73,-319.39 0,-155.58 -8.4,-274.28 -25.19,-355.94l123.47 -13.5 7.25 41.49 7.74 0c34.41,-31.78 81.17,-47.75 140.43,-47.75 61.74,0 110.47,22.22 146.53,66.85 36.06,44.44 54,97.46 54,158.87zm-128.25 12.51c0,-40.5 -10.04,-75.4 -30.46,-104.54 -20.25,-29.31 -48.08,-43.96 -83.8,-43.96 -44.45,0 -76.88,13.01 -97.46,39.02 4.78,90.38 7.25,173.19 7.25,248.43 20.25,15.8 46.43,23.71 78.53,23.71 42.8,0 74.57,-15.81 95.16,-47.58 20.58,-31.61 30.79,-69.97 30.79,-115.08zm630.73 235.92l-113.76 3.95c-5.27,-13.67 -7.74,-25.85 -7.74,-36.71l-6.26 0c-35.39,30.12 -83.13,45.27 -143.39,45.27 -40.17,0 -73.43,-11.2 -99.93,-33.43 -26.67,-22.39 -39.85,-52.02 -39.85,-89.07 0,-48.9 20.59,-88.9 61.91,-120.02 41.32,-31.28 113.76,-47.74 217.31,-49.72 0.66,-5.76 0.99,-11.36 0.99,-16.46 0,-34.73 -8.4,-57.62 -25.02,-68.65 -16.8,-11.2 -47.41,-16.63 -92.19,-16.63 -48.57,0 -95.98,6.42 -142.25,19.26l10.54 -88.74c43.79,-15.15 105.53,-22.72 185.22,-22.72 58.28,0 103.22,12.18 134.83,36.71 31.78,24.37 47.58,67.17 47.58,128.25 0,13.5 -0.66,38.19 -1.81,73.75 -0.98,35.72 -1.65,59.6 -1.65,71.45 0,66.51 5.1,121.01 15.47,163.48zm-128.74 -100.26c-1.98,-43.46 -2.96,-81 -2.96,-112.44 -109.64,0 -164.47,27.82 -164.47,83.47 0,38.2 24.2,57.46 72.44,57.46 37.86,0 69.48,-9.55 94.99,-28.49zm388.06 100.76l-131.71 0c4.94,-110.31 7.24,-229.83 7.24,-358.41 0,-125.28 -4.94,-231.96 -14.81,-319.72l139.28 -7.74c-4.78,91.04 -7.25,200.19 -7.25,327.45 0,129.24 2.47,248.76 7.25,358.41zm777.42 -106.19l-3.78 106.19 -410.43 0c4.12,-97.13 6.25,-206.61 6.25,-328.44 0,-117.06 -2.13,-216.98 -6.25,-299.46l391.66 0 -5.27 105.53c-96.47,-5.1 -184.06,-7.74 -262.42,-7.74 3.13,44.78 4.77,97.46 4.77,158.22 67.17,0 139.11,-1.81 215.67,-5.27l0 100.76c-75.24,-3.13 -147.18,-4.78 -215.67,-4.78 0,65.19 1.31,126.44 3.95,183.23 88.08,0 181.92,-2.63 281.52,-8.22zm526.69 -351.99c0,20.91 -23.05,87.09 -68.98,198.71 -52.35,128.25 -84.78,215.67 -96.97,262.43 -20.91,80.35 -49.06,135.82 -84.46,166.28 -34.08,29.63 -85.11,44.45 -153.27,44.45l-9.71 -93.18c39.84,0 72.77,-11.2 98.45,-33.91 25.68,-22.72 38.52,-53.02 38.52,-90.88 0,-38.36 -28.97,-122 -86.76,-251.07 -57.95,-129.07 -86.76,-196.74 -86.76,-202.83l148.99 0c0,11.2 14.65,65.69 43.79,163.48 29.3,97.79 43.96,157.56 43.96,179.45l6.75 0c0,-18.6 13.34,-73.76 39.85,-165.3 26.5,-91.37 39.67,-150.64 39.67,-177.64l126.93 0zm511.7 179.95c0,16.3 -0.98,37.7 -2.8,64.04l-310.66 5.27c4.44,36.39 20.08,66.68 46.76,90.71 26.67,24.2 61.74,36.22 105.2,36.22 48.24,0 99.44,-7.25 153.77,-21.74l-9.55 93.51c-44.45,16.13 -99.44,24.2 -164.96,24.2 -82.98,0 -146.53,-23.37 -190.81,-69.96 -44.28,-46.6 -66.35,-102.74 -66.35,-168.26 0,-68.48 21.07,-127.92 62.9,-178.29 41.98,-50.21 100.26,-75.41 174.84,-75.41 68.32,0 118.86,18.44 151.96,55.48 33.25,36.87 49.72,84.94 49.72,144.22zm-112.77 -4.44c0,-73.93 -31.61,-110.97 -94.67,-110.97 -60.09,0 -95.82,38.36 -107.01,114.92l201.68 -3.95zm901.72 168.42l-8.07 110.79c-45.77,11.03 -90.71,16.46 -135.17,16.46 -110.31,0 -194.27,-30.45 -252.05,-91.37 -57.63,-60.91 -86.44,-135 -86.44,-222.08 0,-90.39 30.62,-169.08 91.86,-235.93 61.24,-66.83 145.21,-100.26 251.89,-100.26 39.34,0 76.39,4.44 111.46,13.5l-16.8 111.46c-38.03,-12.35 -74.25,-18.44 -108.98,-18.44 -65.36,0 -113.93,20.75 -145.7,62.07 -31.94,41.33 -47.75,91.54 -47.75,150.64 0,60.42 18.93,112.94 56.63,157.22 37.7,44.45 90.71,66.68 158.87,66.68 40,0 83.31,-6.92 130.23,-20.74zm495.23 113.76l-113.76 3.95c-5.27,-13.67 -7.74,-25.85 -7.74,-36.71l-6.26 0c-35.4,30.12 -83.14,45.27 -143.39,45.27 -40.17,0 -73.43,-11.2 -99.93,-33.43 -26.67,-22.39 -39.85,-52.02 -39.85,-89.07 0,-48.9 20.58,-88.9 61.91,-120.02 41.32,-31.28 113.76,-47.74 217.31,-49.72 0.65,-5.76 0.98,-11.36 0.98,-16.46 0,-34.73 -8.4,-57.62 -25.02,-68.65 -16.8,-11.2 -47.42,-16.63 -92.19,-16.63 -48.57,0 -95.98,6.42 -142.25,19.26l10.54 -88.74c43.79,-15.15 105.53,-22.72 185.21,-22.72 58.28,0 103.22,12.18 134.83,36.71 31.78,24.37 47.58,67.17 47.58,128.25 0,13.5 -0.66,38.19 -1.81,73.75 -0.99,35.72 -1.65,59.6 -1.65,71.45 0,66.51 5.11,121.01 15.47,163.48zm-128.74 -100.26c-1.98,-43.46 -2.96,-81 -2.96,-112.44 -109.64,0 -164.47,27.82 -164.47,83.47 0,38.2 24.2,57.46 72.44,57.46 37.86,0 69.47,-9.55 94.99,-28.49zm562.24 -357.42l-27.98 112.77c-23.87,-9.55 -47.91,-14.48 -72.44,-14.48 -47.24,0 -78.36,21.24 -93.51,63.71 0,128.25 0.98,227.03 2.96,296.18l-128.41 0c5.59,-96.8 8.22,-175.83 8.22,-237.24 0,-76.56 -8.07,-149.16 -24.04,-217.65l122.98 -13.5c5.44,35.4 8.23,56.15 8.23,62.24l7.58 0c29.63,-45.28 68.98,-68 118.2,-68 23.21,0 49.22,5.27 78.2,15.97zm503.96 179.95c0,16.3 -0.98,37.7 -2.8,64.04l-310.67 5.27c4.44,36.39 20.08,66.68 46.76,90.71 26.67,24.2 61.74,36.22 105.2,36.22 48.24,0 99.44,-7.25 153.77,-21.74l-9.55 93.51c-44.45,16.13 -99.44,24.2 -164.96,24.2 -82.98,0 -146.53,-23.37 -190.82,-69.96 -44.28,-46.6 -66.35,-102.74 -66.35,-168.26 0,-68.48 21.07,-127.92 62.9,-178.29 41.98,-50.21 100.26,-75.41 174.84,-75.41 68.32,0 118.86,18.44 151.96,55.48 33.25,36.87 49.72,84.94 49.72,144.22zm-112.77 -4.44c0,-73.93 -31.61,-110.97 -94.67,-110.97 -60.09,0 -95.82,38.36 -107.01,114.92l201.68 -3.95z"/>
   <g>
    <polygon class="fil30" points="1.1,1317.43 1534.69,1317.43 1534.69,1417.35 1.1,1417.35 "/>
    <g>
     <path class="fil32" d="M10.8 1178.74c0.15,-11.81 5.44,-21.92 15.88,-30.33 10.44,-8.41 23.04,-12.62 37.79,-12.62 14.75,0 27.38,3.67 37.89,11.01 10.52,7.33 15.77,16.19 15.77,26.57 0,6.44 -3.29,12.44 -9.86,17.98 -6.57,5.55 -14.97,9.39 -25.19,11.54 3.36,0.36 8.62,1.7 15.77,4.03 6.57,2.33 11.9,3.49 15.99,3.49 6.87,0 13.8,-1.61 20.81,-4.83l0 -53.68 -8.76 0 0 -13.42 61.55 0 0 13.42 -17.74 0 0 120.79 -35.05 0 0 -53.69c-5.84,2.69 -13.14,4.03 -21.91,4.03 1.46,3.22 2.19,6.53 2.19,9.93 0,10.02 -5.33,19.15 -15.99,27.38 -10.66,8.23 -22.85,12.35 -36.58,12.35 -15.78,0 -29.21,-3.94 -40.31,-11.81 -11.1,-7.87 -16.65,-17.36 -16.65,-28.45l38.33 0c0,7.33 1.83,13.65 5.48,18.93 3.65,5.28 8.03,7.92 13.15,7.92 5.4,0 10.04,-2.33 13.91,-6.98 3.87,-4.65 5.8,-10.38 5.8,-17.18 0,-6.26 -3.21,-11.63 -9.64,-16.11 -6.43,-4.47 -14.17,-6.71 -23.22,-6.71l0 -14.76c9.06,0.18 16.8,-2.1 23.22,-6.85 6.43,-4.74 9.64,-10.51 9.64,-17.31 0,-6.26 -1.72,-11.63 -5.15,-16.1 -3.43,-4.48 -7.56,-6.71 -12.37,-6.71 -5.41,0 -10.04,2.73 -13.91,8.19 -3.87,5.46 -5.81,12.13 -5.81,20l-35.05 0zm191.67 -26.84l-16.65 0 0 -13.42 69.44 0 0 13.42 -17.74 0 0 120.79 -35.05 0 0 -120.79zm-56.26 -55.02l18.62 -21.48c1.61,-1.79 3.07,-2.68 4.38,-2.68 2.48,0 5.4,1.34 8.76,4.02l50.38 40.26c3.36,2.68 7.01,4.02 10.95,4.02 2.34,0 4.53,-0.44 6.57,-1.34l-12.05 13.42c-5.11,3.58 -9.13,5.37 -12.05,5.37 -3.94,0 -8.32,-1.79 -13.14,-5.37l-42.72 -32.21c-4.09,-3.04 -8.76,-4.56 -14.02,-4.56 -1.9,0 -3.8,0.18 -5.69,0.54zm111.46 55.02l0 -13.42 134.71 0 0 13.42 -17.74 0 0 120.79 -35.04 0 0 -34.89c-10.08,10.74 -22.49,16.1 -37.24,16.1 -9.05,0 -16.79,-3.4 -23.22,-10.2 -6.43,-6.8 -9.64,-15.03 -9.64,-24.69l0 -67.1 -11.83 0zm46.87 0l0 67.1c0,4.48 1.28,8.28 3.83,11.41 2.56,3.13 5.66,4.7 9.31,4.7 7.16,0 14.46,-5.37 21.91,-16.11l0 -67.1 -35.05 0zm86.74 0l0 -13.42 163.41 0 0 13.42 -17.74 0 0 120.79 -35.05 0 0 -91.26c-11.69,8.23 -17.52,25.23 -17.52,51l-32.86 0c-0.15,-9.48 3.5,-20.67 10.95,-33.55 -2.92,-8.05 -6.57,-12.08 -10.95,-12.08 -4.82,0 -8.94,3.4 -12.38,10.2 -3.43,6.8 -5.15,15.03 -5.15,24.69 0,10.74 1.5,19.91 4.49,27.51 3,7.61 6.61,11.41 10.84,11.41 2.19,0 5.84,-1.79 10.95,-5.37l0 14.76c-5.84,2.69 -10.59,4.02 -14.24,4.02 -13,0 -24.1,-5.37 -33.3,-16.1 -9.2,-10.74 -13.8,-23.71 -13.8,-38.92 0,-14.13 4.06,-26.21 12.16,-36.24 8.11,-10.02 17.93,-14.94 29.46,-14.76 11.98,0.18 22.2,6.44 30.67,18.79 7.74,-11.09 17.96,-17.36 30.67,-18.79l0 -16.11 -110.62 0zm214.67 26.84c0.15,-11.81 5.44,-21.92 15.88,-30.33 10.44,-8.41 23.04,-12.62 37.78,-12.62 14.75,0 27.38,3.67 37.9,11.01 10.52,7.33 15.77,16.19 15.77,26.57 0,6.44 -3.28,12.44 -9.85,17.98 -6.57,5.55 -14.97,9.39 -25.19,11.54 3.36,0.36 8.61,1.7 15.77,4.03 6.57,2.33 11.9,3.49 15.99,3.49 6.87,0 13.8,-1.61 20.81,-4.83l0 -53.68 -8.76 0 0 -13.42 61.56 0 0 13.42 -17.74 0 0 120.79 -35.05 0 0 -53.69c-5.84,2.69 -13.15,4.03 -21.91,4.03 1.46,3.22 2.19,6.53 2.19,9.93 0,10.02 -5.33,19.15 -15.99,27.38 -10.66,8.23 -22.85,12.35 -36.58,12.35 -15.77,0 -29.2,-3.94 -40.31,-11.81 -11.09,-7.87 -16.65,-17.36 -16.65,-28.45l38.33 0c0,7.33 1.83,13.65 5.48,18.93 3.65,5.28 8.03,7.92 13.14,7.92 5.4,0 10.04,-2.33 13.91,-6.98 3.87,-4.65 5.81,-10.38 5.81,-17.18 0,-6.26 -3.21,-11.63 -9.64,-16.11 -6.43,-4.47 -14.17,-6.71 -23.22,-6.71l0 -14.76c9.05,0.18 16.79,-2.1 23.22,-6.85 6.43,-4.74 9.64,-10.51 9.64,-17.31 0,-6.26 -1.72,-11.63 -5.15,-16.1 -3.43,-4.48 -7.56,-6.71 -12.37,-6.71 -5.41,0 -10.04,2.73 -13.91,8.19 -3.87,5.46 -5.8,12.13 -5.8,20l-35.05 0zm191.67 -26.84l-16.65 0 0 -13.42 69.44 0 0 13.42 -17.74 0 0 120.79 -35.05 0 0 -120.79zm58.27 56.37c0,-7.16 1.83,-12.52 5.48,-16.11l10.95 0c8.47,0 15.7,-2.37 21.69,-7.11 5.99,-4.74 8.98,-10.43 8.98,-17.04 0,-6.8 -2.92,-12.17 -8.76,-16.11l-43.59 0 0 -13.42 155.52 0 0 13.42 -17.74 0 0 120.79 -35.05 0 0 -36.24c-14.89,15.21 -28.77,22.81 -41.62,22.81 -15.48,0 -28.66,-4.97 -39.54,-14.9 -10.88,-9.93 -16.32,-21.96 -16.32,-36.1zm36.15 -5.37c0.15,10.38 2.77,19.24 7.88,26.57 5.11,7.34 11.25,11 18.4,11 11.69,0 23.37,-7.16 35.05,-21.47l0 -67.1 -21.9 0c2.92,5.37 4.38,10.74 4.38,16.11 0.15,7.52 -3.94,14.54 -12.26,21.07 -8.33,6.53 -18.84,11.14 -31.54,13.82zm163.19 13.42c0,-13.24 4.71,-24.6 14.13,-34.09 9.42,-9.48 20.77,-14.22 34.06,-14.22 9.49,0 18.25,1.79 26.28,5.37l0 -21.47 -80.83 0 0 -13.42 193.42 0 0 13.42 -77.54 0 0 21.47c8.32,-3.58 16.35,-5.37 24.09,-5.37 12.7,0 23.55,3.93 32.53,11.81 8.98,7.87 13.47,17.36 13.47,28.45 0,13.24 -4.38,24.61 -13.15,34.09 -8.76,9.48 -19.35,14.22 -31.76,14.22l-14.24 0 0 -13.42 7.67 0c5.11,0 9.49,-2.86 13.14,-8.59 3.65,-5.72 5.48,-12.7 5.48,-20.94 0,-8.23 -2.56,-15.16 -7.67,-20.8 -5.11,-5.64 -11.32,-8.55 -18.62,-8.72 -3.51,0 -7.16,0.9 -10.95,2.69l0 85.89 -35.05 0 0 -26.84c-10.37,7.16 -22.05,10.74 -35.05,10.74 -10.81,0 -20.08,-3.94 -27.82,-11.81 -7.74,-7.87 -11.61,-17.36 -11.61,-28.45zm37.24 -5.37c0,7.33 1.93,13.65 5.8,18.92 3.87,5.28 8.51,7.92 13.91,7.92 3.65,0 9.49,-1.79 17.52,-5.37l0 -48.31c-3.5,-1.79 -7.89,-2.69 -13.14,-2.69 -6.72,0 -12.41,2.86 -17.09,8.59 -4.67,5.73 -7.01,12.7 -7.01,20.94zm36.18 -114.07l18.62 -21.48c1.6,-1.79 3.07,-2.68 4.38,-2.68 2.48,0 5.4,1.34 8.76,4.02l50.38 40.26c3.36,2.68 7.01,4.02 10.95,4.02 2.33,0 4.53,-0.44 6.57,-1.34l-12.05 13.42c-5.11,3.58 -9.13,5.37 -12.05,5.37 -3.94,0 -8.32,-1.79 -13.15,-5.37l-42.71 -32.21c-4.09,-3.04 -8.76,-4.56 -14.02,-4.56 -1.9,0 -3.8,0.18 -5.69,0.54zm120 81.87c0.15,-11.81 5.44,-21.92 15.88,-30.33 10.44,-8.41 23.04,-12.62 37.79,-12.62 14.74,0 27.38,3.67 37.89,11.01 10.52,7.33 15.77,16.19 15.77,26.57 0,6.44 -3.29,12.44 -9.86,17.98 -6.57,5.55 -14.97,9.39 -25.19,11.54 3.36,0.36 8.61,1.7 15.77,4.03 6.57,2.33 11.9,3.49 15.99,3.49 6.87,0 13.8,-1.61 20.81,-4.83l0 -53.68 -8.76 0 0 -13.42 61.55 0 0 13.42 -17.74 0 0 120.79 -35.05 0 0 -53.69c-5.84,2.69 -13.14,4.03 -21.91,4.03 1.46,3.22 2.19,6.53 2.19,9.93 0,10.02 -5.33,19.15 -15.99,27.38 -10.66,8.23 -22.85,12.35 -36.58,12.35 -15.77,0 -29.2,-3.94 -40.3,-11.81 -11.1,-7.87 -16.65,-17.36 -16.65,-28.45l38.33 0c0,7.33 1.83,13.65 5.48,18.93 3.65,5.28 8.03,7.92 13.14,7.92 5.41,0 10.04,-2.33 13.91,-6.98 3.87,-4.65 5.81,-10.38 5.81,-17.18 0,-6.26 -3.21,-11.63 -9.64,-16.11 -6.43,-4.47 -14.17,-6.71 -23.22,-6.71l0 -14.76c9.06,0.18 16.8,-2.1 23.22,-6.85 6.43,-4.74 9.64,-10.51 9.64,-17.31 0,-6.26 -1.72,-11.63 -5.15,-16.1 -3.43,-4.48 -7.56,-6.71 -12.37,-6.71 -5.4,0 -10.04,2.73 -13.91,8.19 -3.87,5.46 -5.81,12.13 -5.81,20l-35.05 0zm176.33 -40.26l116.75 0 0 13.42 -20.59 0c7.3,7.52 10.95,15.12 10.95,22.81 0,9.84 -5.59,19.19 -16.76,28.05 -11.17,8.86 -25.3,15.17 -42.39,18.93l32.86 29.52c3.94,2.69 8.32,4.03 13.14,4.03 2.92,0 5.91,-1.7 8.98,-5.1 3.07,-3.4 4.82,-5.1 5.26,-5.1 0.44,0 0.88,0.13 1.31,0.4 0.44,0.27 0.66,0.76 0.66,1.48 0,3.04 -1.75,6.71 -5.26,11l-9.86 9.39c-3.65,3.4 -9.13,5.19 -16.43,5.37 -9.06,0.18 -18.91,-4.74 -29.57,-14.76l-27.38 -25.5c-7.74,-7.16 -14.31,-10.74 -19.71,-10.74 -0.15,-3.76 1.31,-6.93 4.38,-9.53 3.07,-2.6 6.72,-3.89 10.95,-3.89 2.19,0 5.44,0.67 9.75,2.01 4.31,1.34 7.63,2.02 9.97,2.02 9.64,0 17.89,-3.8 24.75,-11.41 6.87,-7.6 10.3,-16.78 10.3,-27.51 0,-6.62 -2.56,-12.26 -7.67,-16.91 -5.11,-4.65 -11.32,-7.07 -18.62,-7.25 -5.55,0 -12.12,2.69 -19.71,8.06l0 -5.37 -26.07 0 0 -13.42z"/>
     <g>
      <path class="fil6" d="M2.6 1167.96c0.15,-11.81 5.44,-21.92 15.88,-30.33 10.44,-8.41 23.04,-12.62 37.79,-12.62 14.75,0 27.38,3.67 37.89,11.01 10.52,7.33 15.77,16.19 15.77,26.57 0,6.44 -3.29,12.44 -9.86,17.98 -6.57,5.55 -14.97,9.4 -25.19,11.54 3.36,0.36 8.61,1.7 15.77,4.02 6.57,2.33 11.9,3.49 15.99,3.49 6.87,0 13.8,-1.61 20.81,-4.83l0 -53.69 -8.76 0 0 -13.42 61.55 0 0 13.42 -17.74 0 0 120.79 -35.05 0 0 -53.69c-5.84,2.69 -13.14,4.03 -21.91,4.03 1.46,3.22 2.19,6.53 2.19,9.93 0,10.02 -5.33,19.15 -15.99,27.38 -10.66,8.23 -22.85,12.35 -36.58,12.35 -15.77,0 -29.2,-3.94 -40.3,-11.81 -11.1,-7.87 -16.65,-17.36 -16.65,-28.45l38.33 0c0,7.33 1.82,13.64 5.48,18.92 3.65,5.28 8.03,7.92 13.14,7.92 5.41,0 10.04,-2.33 13.91,-6.98 3.87,-4.65 5.8,-10.38 5.8,-17.18 0,-6.26 -3.21,-11.63 -9.64,-16.11 -6.43,-4.47 -14.17,-6.71 -23.22,-6.71l0 -14.76c9.06,0.18 16.8,-2.1 23.22,-6.84 6.43,-4.74 9.64,-10.51 9.64,-17.31 0,-6.26 -1.72,-11.63 -5.15,-16.1 -3.43,-4.48 -7.56,-6.71 -12.37,-6.71 -5.41,0 -10.04,2.73 -13.91,8.19 -3.87,5.46 -5.81,12.12 -5.81,20l-35.05 0zm191.67 -26.84l-16.65 0 0 -13.42 69.44 0 0 13.42 -17.74 0 0 120.79 -35.05 0 0 -120.79zm-56.26 -55.02l18.62 -21.47c1.61,-1.79 3.07,-2.69 4.38,-2.69 2.48,0 5.4,1.34 8.76,4.03l50.38 40.26c3.36,2.69 7.01,4.03 10.95,4.03 2.34,0 4.53,-0.45 6.57,-1.34l-12.05 13.42c-5.11,3.58 -9.13,5.37 -12.05,5.37 -3.94,0 -8.32,-1.79 -13.14,-5.37l-42.72 -32.21c-4.09,-3.04 -8.76,-4.56 -14.02,-4.56 -1.9,0 -3.8,0.18 -5.69,0.54zm111.46 55.02l0 -13.42 134.71 0 0 13.42 -17.74 0 0 120.79 -35.05 0 0 -34.89c-10.07,10.74 -22.49,16.11 -37.24,16.11 -9.05,0 -16.79,-3.4 -23.22,-10.2 -6.43,-6.8 -9.64,-15.03 -9.64,-24.7l0 -67.1 -11.83 0zm46.87 0l0 67.1c0,4.48 1.28,8.28 3.83,11.41 2.56,3.13 5.66,4.7 9.31,4.7 7.16,0 14.46,-5.37 21.91,-16.11l0 -67.1 -35.05 0zm86.74 0l0 -13.42 163.41 0 0 13.42 -17.74 0 0 120.79 -35.05 0 0 -91.26c-11.69,8.23 -17.53,25.23 -17.53,51l-32.85 0c-0.15,-9.49 3.5,-20.67 10.95,-33.56 -2.92,-8.05 -6.57,-12.08 -10.95,-12.08 -4.82,0 -8.94,3.4 -12.38,10.2 -3.43,6.8 -5.15,15.03 -5.15,24.69 0,10.74 1.5,19.91 4.49,27.51 3,7.61 6.61,11.41 10.84,11.41 2.19,0 5.84,-1.79 10.95,-5.37l0 14.76c-5.84,2.69 -10.59,4.03 -14.24,4.03 -13,0 -24.1,-5.37 -33.3,-16.11 -9.2,-10.74 -13.8,-23.71 -13.8,-38.92 0,-14.13 4.06,-26.21 12.16,-36.23 8.11,-10.02 17.93,-14.94 29.46,-14.76 11.98,0.18 22.2,6.44 30.67,18.79 7.74,-11.09 17.96,-17.36 30.67,-18.79l0 -16.11 -110.62 0zm214.67 26.84c0.15,-11.81 5.44,-21.92 15.88,-30.33 10.44,-8.41 23.04,-12.62 37.78,-12.62 14.75,0 27.38,3.67 37.9,11.01 10.52,7.33 15.77,16.19 15.77,26.57 0,6.44 -3.28,12.44 -9.85,17.98 -6.57,5.55 -14.97,9.4 -25.19,11.54 3.36,0.36 8.61,1.7 15.77,4.02 6.57,2.33 11.9,3.49 15.99,3.49 6.87,0 13.8,-1.61 20.81,-4.83l0 -53.69 -8.76 0 0 -13.42 61.56 0 0 13.42 -17.74 0 0 120.79 -35.05 0 0 -53.69c-5.84,2.69 -13.15,4.03 -21.91,4.03 1.46,3.22 2.19,6.53 2.19,9.93 0,10.02 -5.33,19.15 -15.99,27.38 -10.66,8.23 -22.85,12.35 -36.58,12.35 -15.77,0 -29.2,-3.94 -40.31,-11.81 -11.09,-7.87 -16.65,-17.36 -16.65,-28.45l38.33 0c0,7.33 1.83,13.64 5.48,18.92 3.65,5.28 8.03,7.92 13.14,7.92 5.4,0 10.04,-2.33 13.91,-6.98 3.87,-4.65 5.81,-10.38 5.81,-17.18 0,-6.26 -3.22,-11.63 -9.64,-16.11 -6.43,-4.47 -14.17,-6.71 -23.22,-6.71l0 -14.76c9.05,0.18 16.79,-2.1 23.22,-6.84 6.42,-4.74 9.64,-10.51 9.64,-17.31 0,-6.26 -1.72,-11.63 -5.15,-16.1 -3.43,-4.48 -7.56,-6.71 -12.37,-6.71 -5.41,0 -10.04,2.73 -13.91,8.19 -3.87,5.46 -5.8,12.12 -5.8,20l-35.05 0zm191.67 -26.84l-16.65 0 0 -13.42 69.44 0 0 13.42 -17.74 0 0 120.79 -35.05 0 0 -120.79zm58.27 56.37c0,-7.16 1.83,-12.52 5.48,-16.1l10.95 0c8.47,0 15.7,-2.37 21.69,-7.11 5.99,-4.74 8.98,-10.42 8.98,-17.04 0,-6.8 -2.92,-12.17 -8.76,-16.11l-43.59 0 0 -13.42 155.52 0 0 13.42 -17.74 0 0 120.79 -35.05 0 0 -36.24c-14.9,15.21 -28.77,22.81 -41.62,22.81 -15.48,0 -28.66,-4.96 -39.54,-14.9 -10.88,-9.93 -16.32,-21.96 -16.32,-36.1zm36.14 -5.37c0.15,10.38 2.78,19.24 7.89,26.57 5.11,7.34 11.25,11.01 18.4,11.01 11.69,0 23.37,-7.16 35.05,-21.48l0 -67.1 -21.9 0c2.92,5.37 4.38,10.74 4.38,16.11 0.15,7.52 -3.94,14.54 -12.26,21.07 -8.33,6.53 -18.84,11.14 -31.55,13.82zm163.19 13.42c0,-13.24 4.71,-24.61 14.13,-34.09 9.42,-9.48 20.77,-14.22 34.06,-14.22 9.49,0 18.25,1.79 26.28,5.37l0 -21.47 -80.83 0 0 -13.42 193.42 0 0 13.42 -77.54 0 0 21.47c8.33,-3.58 16.36,-5.37 24.1,-5.37 12.7,0 23.55,3.94 32.53,11.81 8.98,7.87 13.47,17.35 13.47,28.45 0,13.24 -4.38,24.61 -13.15,34.09 -8.76,9.48 -19.35,14.22 -31.76,14.22l-14.24 0 0 -13.42 7.67 0c5.11,0 9.49,-2.87 13.14,-8.59 3.65,-5.73 5.48,-12.7 5.48,-20.94 0,-8.23 -2.56,-15.17 -7.67,-20.8 -5.11,-5.64 -11.32,-8.54 -18.62,-8.72 -3.51,0 -7.16,0.9 -10.96,2.69l0 85.89 -35.05 0 0 -26.84c-10.37,7.16 -22.05,10.74 -35.05,10.74 -10.81,0 -20.08,-3.94 -27.82,-11.81 -7.74,-7.87 -11.61,-17.36 -11.61,-28.45zm37.24 -5.37c0,7.34 1.93,13.65 5.8,18.93 3.87,5.28 8.51,7.92 13.91,7.92 3.65,0 9.49,-1.79 17.52,-5.37l0 -48.32c-3.5,-1.79 -7.89,-2.68 -13.14,-2.68 -6.72,0 -12.41,2.86 -17.09,8.59 -4.67,5.73 -7.01,12.7 -7.01,20.94zm36.18 -114.07l18.62 -21.47c1.6,-1.79 3.07,-2.69 4.38,-2.69 2.48,0 5.4,1.34 8.76,4.03l50.38 40.26c3.36,2.69 7.01,4.03 10.95,4.03 2.33,0 4.52,-0.45 6.57,-1.34l-12.05 13.42c-5.11,3.58 -9.13,5.37 -12.05,5.37 -3.94,0 -8.32,-1.79 -13.15,-5.37l-42.71 -32.21c-4.09,-3.04 -8.76,-4.56 -14.02,-4.56 -1.9,0 -3.8,0.18 -5.7,0.54zm120 81.87c0.15,-11.81 5.44,-21.92 15.88,-30.33 10.44,-8.41 23.04,-12.62 37.79,-12.62 14.74,0 27.38,3.67 37.89,11.01 10.52,7.33 15.77,16.19 15.77,26.57 0,6.44 -3.28,12.44 -9.85,17.98 -6.57,5.55 -14.97,9.4 -25.19,11.54 3.36,0.36 8.61,1.7 15.77,4.02 6.57,2.33 11.9,3.49 15.99,3.49 6.87,0 13.8,-1.61 20.81,-4.83l0 -53.69 -8.76 0 0 -13.42 61.56 0 0 13.42 -17.74 0 0 120.79 -35.05 0 0 -53.69c-5.84,2.69 -13.15,4.03 -21.91,4.03 1.46,3.22 2.19,6.53 2.19,9.93 0,10.02 -5.33,19.15 -15.99,27.38 -10.66,8.23 -22.85,12.35 -36.58,12.35 -15.77,0 -29.2,-3.94 -40.3,-11.81 -11.1,-7.87 -16.65,-17.36 -16.65,-28.45l38.33 0c0,7.33 1.83,13.64 5.48,18.92 3.65,5.28 8.03,7.92 13.14,7.92 5.41,0 10.04,-2.33 13.91,-6.98 3.87,-4.65 5.81,-10.38 5.81,-17.18 0,-6.26 -3.21,-11.63 -9.64,-16.11 -6.43,-4.47 -14.17,-6.71 -23.22,-6.71l0 -14.76c9.06,0.18 16.8,-2.1 23.22,-6.84 6.43,-4.74 9.64,-10.51 9.64,-17.31 0,-6.26 -1.72,-11.63 -5.15,-16.1 -3.43,-4.48 -7.56,-6.71 -12.37,-6.71 -5.41,0 -10.04,2.73 -13.91,8.19 -3.87,5.46 -5.81,12.12 -5.81,20l-35.05 0zm176.33 -40.26l116.75 0 0 13.42 -20.59 0c7.3,7.52 10.95,15.12 10.95,22.81 0,9.84 -5.59,19.19 -16.76,28.05 -11.17,8.86 -25.3,15.17 -42.39,18.92l32.86 29.53c3.94,2.69 8.32,4.02 13.14,4.02 2.92,0 5.91,-1.7 8.98,-5.1 3.07,-3.4 4.82,-5.1 5.26,-5.1 0.44,0 0.88,0.13 1.31,0.4 0.44,0.27 0.66,0.76 0.66,1.48 0,3.04 -1.75,6.71 -5.26,11l-9.86 9.39c-3.65,3.4 -9.13,5.19 -16.43,5.37 -9.06,0.18 -18.91,-4.74 -29.57,-14.76l-27.38 -25.5c-7.74,-7.16 -14.31,-10.74 -19.71,-10.74 -0.15,-3.76 1.31,-6.93 4.38,-9.53 3.07,-2.59 6.72,-3.89 10.95,-3.89 2.19,0 5.44,0.67 9.75,2.02 4.31,1.34 7.63,2.01 9.96,2.01 9.64,0 17.89,-3.8 24.76,-11.41 6.86,-7.61 10.3,-16.78 10.3,-27.52 0,-6.62 -2.56,-12.26 -7.67,-16.91 -5.11,-4.65 -11.32,-7.07 -18.62,-7.24 -5.55,0 -12.12,2.68 -19.71,8.05l0 -5.37 -26.07 0 0 -13.42z"/>
      <path class="fil33" style="mask:url(#id18)" d="M2.6 1167.96c0.15,-11.81 5.44,-21.92 15.88,-30.33 10.44,-8.41 23.04,-12.62 37.79,-12.62 14.75,0 27.38,3.67 37.89,11.01 10.52,7.33 15.77,16.19 15.77,26.57 0,6.44 -3.29,12.44 -9.86,17.98 -6.57,5.55 -14.97,9.4 -25.19,11.54 3.36,0.36 8.61,1.7 15.77,4.02 6.57,2.33 11.9,3.49 15.99,3.49 6.87,0 13.8,-1.61 20.81,-4.83l0 -53.69 -8.76 0 0 -13.42 61.55 0 0 13.42 -17.74 0 0 120.79 -35.05 0 0 -53.69c-5.84,2.69 -13.14,4.03 -21.91,4.03 1.46,3.22 2.19,6.53 2.19,9.93 0,10.02 -5.33,19.15 -15.99,27.38 -10.66,8.23 -22.85,12.35 -36.58,12.35 -15.77,0 -29.2,-3.94 -40.3,-11.81 -11.1,-7.87 -16.65,-17.36 -16.65,-28.45l38.33 0c0,7.33 1.82,13.64 5.48,18.92 3.65,5.28 8.03,7.92 13.14,7.92 5.41,0 10.04,-2.33 13.91,-6.98 3.87,-4.65 5.8,-10.38 5.8,-17.18 0,-6.26 -3.21,-11.63 -9.64,-16.11 -6.43,-4.47 -14.17,-6.71 -23.22,-6.71l0 -14.76c9.06,0.18 16.8,-2.1 23.22,-6.84 6.43,-4.74 9.64,-10.51 9.64,-17.31 0,-6.26 -1.72,-11.63 -5.15,-16.1 -3.43,-4.48 -7.56,-6.71 -12.37,-6.71 -5.41,0 -10.04,2.73 -13.91,8.19 -3.87,5.46 -5.81,12.12 -5.81,20l-35.05 0zm191.67 -26.84l-16.65 0 0 -13.42 69.44 0 0 13.42 -17.74 0 0 120.79 -35.05 0 0 -120.79zm-56.26 -55.02l18.62 -21.47c1.61,-1.79 3.07,-2.69 4.38,-2.69 2.48,0 5.4,1.34 8.76,4.03l50.38 40.26c3.36,2.69 7.01,4.03 10.95,4.03 2.34,0 4.53,-0.45 6.57,-1.34l-12.05 13.42c-5.11,3.58 -9.13,5.37 -12.05,5.37 -3.94,0 -8.32,-1.79 -13.14,-5.37l-42.72 -32.21c-4.09,-3.04 -8.76,-4.56 -14.02,-4.56 -1.9,0 -3.8,0.18 -5.69,0.54zm111.46 55.02l0 -13.42 134.71 0 0 13.42 -17.74 0 0 120.79 -35.05 0 0 -34.89c-10.07,10.74 -22.49,16.11 -37.24,16.11 -9.05,0 -16.79,-3.4 -23.22,-10.2 -6.43,-6.8 -9.64,-15.03 -9.64,-24.7l0 -67.1 -11.83 0zm46.87 0l0 67.1c0,4.48 1.28,8.28 3.83,11.41 2.56,3.13 5.66,4.7 9.31,4.7 7.16,0 14.46,-5.37 21.91,-16.11l0 -67.1 -35.05 0zm86.74 0l0 -13.42 163.41 0 0 13.42 -17.74 0 0 120.79 -35.05 0 0 -91.26c-11.69,8.23 -17.53,25.23 -17.53,51l-32.85 0c-0.15,-9.49 3.5,-20.67 10.95,-33.56 -2.92,-8.05 -6.57,-12.08 -10.95,-12.08 -4.82,0 -8.94,3.4 -12.38,10.2 -3.43,6.8 -5.15,15.03 -5.15,24.69 0,10.74 1.5,19.91 4.49,27.51 3,7.61 6.61,11.41 10.84,11.41 2.19,0 5.84,-1.79 10.95,-5.37l0 14.76c-5.84,2.69 -10.59,4.03 -14.24,4.03 -13,0 -24.1,-5.37 -33.3,-16.11 -9.2,-10.74 -13.8,-23.71 -13.8,-38.92 0,-14.13 4.06,-26.21 12.16,-36.23 8.11,-10.02 17.93,-14.94 29.46,-14.76 11.98,0.18 22.2,6.44 30.67,18.79 7.74,-11.09 17.96,-17.36 30.67,-18.79l0 -16.11 -110.62 0zm214.67 26.84c0.15,-11.81 5.44,-21.92 15.88,-30.33 10.44,-8.41 23.04,-12.62 37.78,-12.62 14.75,0 27.38,3.67 37.9,11.01 10.52,7.33 15.77,16.19 15.77,26.57 0,6.44 -3.28,12.44 -9.85,17.98 -6.57,5.55 -14.97,9.4 -25.19,11.54 3.36,0.36 8.61,1.7 15.77,4.02 6.57,2.33 11.9,3.49 15.99,3.49 6.87,0 13.8,-1.61 20.81,-4.83l0 -53.69 -8.76 0 0 -13.42 61.56 0 0 13.42 -17.74 0 0 120.79 -35.05 0 0 -53.69c-5.84,2.69 -13.15,4.03 -21.91,4.03 1.46,3.22 2.19,6.53 2.19,9.93 0,10.02 -5.33,19.15 -15.99,27.38 -10.66,8.23 -22.85,12.35 -36.58,12.35 -15.77,0 -29.2,-3.94 -40.31,-11.81 -11.09,-7.87 -16.65,-17.36 -16.65,-28.45l38.33 0c0,7.33 1.83,13.64 5.48,18.92 3.65,5.28 8.03,7.92 13.14,7.92 5.4,0 10.04,-2.33 13.91,-6.98 3.87,-4.65 5.81,-10.38 5.81,-17.18 0,-6.26 -3.22,-11.63 -9.64,-16.11 -6.43,-4.47 -14.17,-6.71 -23.22,-6.71l0 -14.76c9.05,0.18 16.79,-2.1 23.22,-6.84 6.42,-4.74 9.64,-10.51 9.64,-17.31 0,-6.26 -1.72,-11.63 -5.15,-16.1 -3.43,-4.48 -7.56,-6.71 -12.37,-6.71 -5.41,0 -10.04,2.73 -13.91,8.19 -3.87,5.46 -5.8,12.12 -5.8,20l-35.05 0zm191.67 -26.84l-16.65 0 0 -13.42 69.44 0 0 13.42 -17.74 0 0 120.79 -35.05 0 0 -120.79zm58.27 56.37c0,-7.16 1.83,-12.52 5.48,-16.1l10.95 0c8.47,0 15.7,-2.37 21.69,-7.11 5.99,-4.74 8.98,-10.42 8.98,-17.04 0,-6.8 -2.92,-12.17 -8.76,-16.11l-43.59 0 0 -13.42 155.52 0 0 13.42 -17.74 0 0 120.79 -35.05 0 0 -36.24c-14.9,15.21 -28.77,22.81 -41.62,22.81 -15.48,0 -28.66,-4.96 -39.54,-14.9 -10.88,-9.93 -16.32,-21.96 -16.32,-36.1zm36.14 -5.37c0.15,10.38 2.78,19.24 7.89,26.57 5.11,7.34 11.25,11.01 18.4,11.01 11.69,0 23.37,-7.16 35.05,-21.48l0 -67.1 -21.9 0c2.92,5.37 4.38,10.74 4.38,16.11 0.15,7.52 -3.94,14.54 -12.26,21.07 -8.33,6.53 -18.84,11.14 -31.55,13.82zm163.19 13.42c0,-13.24 4.71,-24.61 14.13,-34.09 9.42,-9.48 20.77,-14.22 34.06,-14.22 9.49,0 18.25,1.79 26.28,5.37l0 -21.47 -80.83 0 0 -13.42 193.42 0 0 13.42 -77.54 0 0 21.47c8.33,-3.58 16.36,-5.37 24.1,-5.37 12.7,0 23.55,3.94 32.53,11.81 8.98,7.87 13.47,17.35 13.47,28.45 0,13.24 -4.38,24.61 -13.15,34.09 -8.76,9.48 -19.35,14.22 -31.76,14.22l-14.24 0 0 -13.42 7.67 0c5.11,0 9.49,-2.87 13.14,-8.59 3.65,-5.73 5.48,-12.7 5.48,-20.94 0,-8.23 -2.56,-15.17 -7.67,-20.8 -5.11,-5.64 -11.32,-8.54 -18.62,-8.72 -3.51,0 -7.16,0.9 -10.96,2.69l0 85.89 -35.05 0 0 -26.84c-10.37,7.16 -22.05,10.74 -35.05,10.74 -10.81,0 -20.08,-3.94 -27.82,-11.81 -7.74,-7.87 -11.61,-17.36 -11.61,-28.45zm37.24 -5.37c0,7.34 1.93,13.65 5.8,18.93 3.87,5.28 8.51,7.92 13.91,7.92 3.65,0 9.49,-1.79 17.52,-5.37l0 -48.32c-3.5,-1.79 -7.89,-2.68 -13.14,-2.68 -6.72,0 -12.41,2.86 -17.09,8.59 -4.67,5.73 -7.01,12.7 -7.01,20.94zm36.18 -114.07l18.62 -21.47c1.6,-1.79 3.07,-2.69 4.38,-2.69 2.48,0 5.4,1.34 8.76,4.03l50.38 40.26c3.36,2.69 7.01,4.03 10.95,4.03 2.33,0 4.52,-0.45 6.57,-1.34l-12.05 13.42c-5.11,3.58 -9.13,5.37 -12.05,5.37 -3.94,0 -8.32,-1.79 -13.15,-5.37l-42.71 -32.21c-4.09,-3.04 -8.76,-4.56 -14.02,-4.56 -1.9,0 -3.8,0.18 -5.7,0.54zm120 81.87c0.15,-11.81 5.44,-21.92 15.88,-30.33 10.44,-8.41 23.04,-12.62 37.79,-12.62 14.74,0 27.38,3.67 37.89,11.01 10.52,7.33 15.77,16.19 15.77,26.57 0,6.44 -3.28,12.44 -9.85,17.98 -6.57,5.55 -14.97,9.4 -25.19,11.54 3.36,0.36 8.61,1.7 15.77,4.02 6.57,2.33 11.9,3.49 15.99,3.49 6.87,0 13.8,-1.61 20.81,-4.83l0 -53.69 -8.76 0 0 -13.42 61.56 0 0 13.42 -17.74 0 0 120.79 -35.05 0 0 -53.69c-5.84,2.69 -13.15,4.03 -21.91,4.03 1.46,3.22 2.19,6.53 2.19,9.93 0,10.02 -5.33,19.15 -15.99,27.38 -10.66,8.23 -22.85,12.35 -36.58,12.35 -15.77,0 -29.2,-3.94 -40.3,-11.81 -11.1,-7.87 -16.65,-17.36 -16.65,-28.45l38.33 0c0,7.33 1.83,13.64 5.48,18.92 3.65,5.28 8.03,7.92 13.14,7.92 5.41,0 10.04,-2.33 13.91,-6.98 3.87,-4.65 5.81,-10.38 5.81,-17.18 0,-6.26 -3.21,-11.63 -9.64,-16.11 -6.43,-4.47 -14.17,-6.71 -23.22,-6.71l0 -14.76c9.06,0.18 16.8,-2.1 23.22,-6.84 6.43,-4.74 9.64,-10.51 9.64,-17.31 0,-6.26 -1.72,-11.63 -5.15,-16.1 -3.43,-4.48 -7.56,-6.71 -12.37,-6.71 -5.41,0 -10.04,2.73 -13.91,8.19 -3.87,5.46 -5.81,12.12 -5.81,20l-35.05 0zm176.33 -40.26l116.75 0 0 13.42 -20.59 0c7.3,7.52 10.95,15.12 10.95,22.81 0,9.84 -5.59,19.19 -16.76,28.05 -11.17,8.86 -25.3,15.17 -42.39,18.92l32.86 29.53c3.94,2.69 8.32,4.02 13.14,4.02 2.92,0 5.91,-1.7 8.98,-5.1 3.07,-3.4 4.82,-5.1 5.26,-5.1 0.44,0 0.88,0.13 1.31,0.4 0.44,0.27 0.66,0.76 0.66,1.48 0,3.04 -1.75,6.71 -5.26,11l-9.86 9.39c-3.65,3.4 -9.13,5.19 -16.43,5.37 -9.06,0.18 -18.91,-4.74 -29.57,-14.76l-27.38 -25.5c-7.74,-7.16 -14.31,-10.74 -19.71,-10.74 -0.15,-3.76 1.31,-6.93 4.38,-9.53 3.07,-2.59 6.72,-3.89 10.95,-3.89 2.19,0 5.44,0.67 9.75,2.02 4.31,1.34 7.63,2.01 9.96,2.01 9.64,0 17.89,-3.8 24.76,-11.41 6.86,-7.61 10.3,-16.78 10.3,-27.52 0,-6.62 -2.56,-12.26 -7.67,-16.91 -5.11,-4.65 -11.32,-7.07 -18.62,-7.24 -5.55,0 -12.12,2.68 -19.71,8.05l0 -5.37 -26.07 0 0 -13.42z"/>
     </g>
    </g>
    <path class="fil31" d="M392.58 1398.1l2.77 -6.12c-0.02,0 -0.58,-0.04 -1.63,-0.14 -1.04,-0.08 -2.41,-0.23 -4.08,-0.45 -1.68,-0.22 -3.48,-0.53 -5.37,-0.91 -1.92,-0.39 -3.75,-0.88 -5.5,-1.48 -1.75,-0.6 -3.24,-1.32 -4.43,-2.16 -1.48,-1.07 -2.58,-2.23 -3.31,-3.49 -0.7,-1.25 -1.17,-2.57 -1.36,-3.92 -0.22,-1.36 -0.31,-2.73 -0.29,-4.09l0 -17.7 19.98 0 0 11.91c0,0.04 0.02,0.26 0.05,0.67 0,0.41 0,0.89 -0.07,1.48 -0.05,0.59 -0.19,1.16 -0.41,1.71 -0.22,0.56 -0.56,1.02 -1.02,1.36 -0.53,0.31 -1.29,0.6 -2.21,0.84 -0.95,0.26 -1.85,0.53 -2.75,0.81 -0.9,0.3 -1.56,0.67 -1.97,1.1 -0.44,0.45 -0.39,1.02 0.07,1.72 0.66,0.91 1.6,1.54 2.8,1.85 1.19,0.33 2.5,0.44 3.94,0.33 1.46,-0.11 2.89,-0.34 4.3,-0.72 1.43,-0.37 2.7,-0.78 3.81,-1.24 1.12,-0.46 1.94,-0.9 2.5,-1.28 1.15,-0.86 1.94,-1.78 2.38,-2.78 0.46,-0.98 0.71,-1.94 0.78,-2.89 0.05,-0.94 0.07,-1.77 0.05,-2.49l0 -12.4 11.09 0 0 -5.22 -65.64 0 0 5.22 9.92 0 0 18.11c-0.02,1.88 0.2,3.63 0.63,5.29 0.44,1.66 1.17,3.22 2.24,4.7 1.07,1.47 2.55,2.87 4.43,4.2 1.43,0.99 3.11,1.87 5.03,2.67 1.92,0.79 3.94,1.49 6.06,2.09 2.14,0.6 4.21,1.12 6.25,1.55 2.02,0.43 3.87,0.79 5.52,1.06 1.63,0.28 2.96,0.46 3.94,0.6 0.97,0.13 1.48,0.19 1.51,0.19zm71.33 -40.46l0 -5.22 -58.35 0 0 5.22 9.92 0 0 14.76c0.03,1.14 0.51,2.27 1.51,3.4 0.97,1.13 2.36,2.16 4.16,3.1 1.77,0.94 3.86,1.69 6.27,2.26 2.41,0.56 5.03,0.86 7.9,0.87 2.57,-0.01 5,-0.28 7.31,-0.81 2.31,-0.53 4.35,-1.25 6.15,-2.16 1.77,-0.91 3.19,-1.93 4.2,-3.09 1.05,-1.14 1.56,-2.32 1.58,-3.56l0 -14.76 9.33 0zm-21.59 14.76c0.02,0.75 -0.19,1.44 -0.61,2.08 -0.44,0.64 -1.14,1.16 -2.19,1.55 -1.02,0.4 -2.43,0.6 -4.2,0.61 -1.85,-0.02 -3.31,-0.2 -4.43,-0.57 -1.12,-0.38 -1.92,-0.88 -2.43,-1.52 -0.48,-0.64 -0.73,-1.34 -0.73,-2.15l0 -14.76 14.59 0 0 14.76zm27.13 6.2l-9.19 2.75c0,0.01 0.32,0.27 0.9,0.76 0.58,0.5 1.41,1.13 2.48,1.89 1.07,0.76 2.36,1.55 3.82,2.37 1.48,0.8 3.11,1.54 4.91,2.19 3.77,1.32 7.8,2.3 12.08,2.95 4.31,0.65 9.02,0.91 14.18,0.8 2.14,-0.06 4.28,-0.24 6.49,-0.6 2.19,-0.34 4.28,-0.85 6.25,-1.52 1.99,-0.65 3.7,-1.48 5.15,-2.49 1.46,-0.99 2.5,-2.15 3.16,-3.49 0.63,-1.33 0.7,-2.85 0.24,-4.56 -0.39,-1.32 -1.17,-2.46 -2.29,-3.47 -1.14,-0.99 -2.6,-1.78 -4.37,-2.33 -1.78,-0.57 -3.84,-0.86 -6.18,-0.87l-17.5 0c-1.15,-0.02 -2.15,-0.2 -3.02,-0.56 -0.88,-0.35 -1.54,-0.79 -2,-1.31 -0.44,-0.51 -0.56,-1 -0.39,-1.48 0.32,-0.75 0.8,-1.28 1.48,-1.59 0.66,-0.31 1.36,-0.49 2.11,-0.54 0.73,-0.07 1.39,-0.08 1.94,-0.07l24.07 0 0 -9.79 15.46 0 0 -5.22 -74.39 0 0 5.22 47.26 0 0 4.48 -16.92 0c-1.29,0 -2.7,0.17 -4.23,0.5 -1.53,0.33 -2.96,0.84 -4.33,1.52 -1.36,0.69 -2.45,1.56 -3.26,2.62 -0.93,1.36 -1.09,2.72 -0.59,4.06 0.54,1.35 1.61,2.58 3.19,3.7 1.61,1.13 3.52,2.02 5.79,2.69 2.26,0.68 4.67,1.03 7.22,1.05l15.17 0c0.71,-0.02 1.43,0.05 2.16,0.16 0.73,0.12 1.36,0.34 1.9,0.67 0.54,0.31 0.83,0.76 0.9,1.35 0.07,1.11 -0.39,2.09 -1.41,2.94 -1,0.85 -2.41,1.51 -4.18,1.98 -1.8,0.49 -3.81,0.72 -6.08,0.73 -1.94,0.02 -3.94,-0.03 -5.98,-0.15 -2.04,-0.11 -4.2,-0.37 -6.47,-0.79 -2.26,-0.41 -4.67,-1.07 -7.24,-1.97 -1.7,-0.64 -3.19,-1.31 -4.42,-2.02 -1.24,-0.7 -2.19,-1.3 -2.87,-1.81 -0.68,-0.5 -1.02,-0.76 -1.02,-0.78zm128.22 -20.96l0 -5.22 -42.3 0 0 5.22 18.81 0 0 9.87 -4.96 0c-0.85,0 -1.78,0.13 -2.8,0.41 -0.99,0.29 -1.92,0.71 -2.72,1.28 -0.8,0.56 -1.36,1.28 -1.63,2.15 -0.24,1.31 0.03,2.42 0.85,3.35 0.8,0.94 1.94,1.7 3.37,2.28 1.44,0.58 2.97,1.02 4.6,1.31 1.6,0.27 3.11,0.41 4.44,0.41 2.46,-0.02 4.45,-0.26 5.94,-0.73 1.5,-0.46 2.65,-1.04 3.4,-1.73 0.76,-0.68 1.29,-1.37 1.53,-2.05 0.27,-0.68 0.39,-1.24 0.36,-1.69l0 -14.85 11.09 0zm26.4 34.83l3.35 -5.71c-0.02,0 -0.46,-0.09 -1.34,-0.29 -0.87,-0.19 -1.99,-0.47 -3.35,-0.85 -1.36,-0.39 -2.82,-0.89 -4.35,-1.47 -1.54,-0.58 -2.99,-1.29 -4.35,-2.09 -1.36,-0.8 -2.48,-1.71 -3.35,-2.73 -0.88,-1.02 -1.31,-2.16 -1.34,-3.41 0.02,-0.98 0.36,-1.87 1,-2.67 0.66,-0.79 1.51,-1.47 2.58,-2.03 1.07,-0.57 2.21,-0.99 3.45,-1.3 1.22,-0.3 2.43,-0.45 3.62,-0.45 1.97,0.01 3.7,0.13 5.2,0.37 1.48,0.23 2.72,0.5 3.74,0.81 0.99,0.31 1.75,0.57 2.26,0.81 0.51,0.23 0.75,0.35 0.75,0.37 -0.02,0.01 -0.22,0.26 -0.63,0.69 -0.39,0.45 -0.87,0.98 -1.43,1.59 -0.58,0.61 -1.12,1.18 -1.63,1.71 -0.51,0.52 -0.87,0.87 -1.12,1.06 -0.24,0.22 -0.1,0.52 0.39,0.91 0.49,0.39 1.22,0.79 2.17,1.18 0.95,0.39 2,0.7 3.16,0.95 1.15,0.23 2.26,0.3 3.33,0.22 0.63,-0.56 1.36,-1.22 2.17,-2.01 0.83,-0.78 1.7,-1.58 2.67,-2.41 0.94,-0.81 1.97,-1.58 3.04,-2.27 1.39,-0.83 2.82,-1.47 4.28,-1.92 1.48,-0.44 2.77,-0.73 3.94,-0.91 1.14,-0.16 1.97,-0.26 2.43,-0.27l0 16.56 0 5.39 12.4 0 0 -5.3 0 -29.36 15.61 0 0 -5.22 -92.19 0 0 5.22 64.18 0 0 6.61c-0.41,0 -1.12,0 -2.11,0.03 -1,0.03 -2.14,0.08 -3.41,0.19 -1.24,0.11 -2.48,0.27 -3.67,0.52 -0.88,0.19 -1.76,0.45 -2.63,0.77 -0.87,0.31 -1.72,0.65 -2.5,1.01 -0.8,0.35 -1.53,0.68 -2.17,0.99 -0.9,-0.6 -2.26,-1.21 -4.11,-1.86 -1.82,-0.65 -4.01,-1.2 -6.52,-1.66 -2.53,-0.46 -5.25,-0.69 -8.19,-0.72 -2.85,0 -5.57,0.25 -8.19,0.75 -2.65,0.5 -5.01,1.27 -7.1,2.3 -2.09,1.03 -3.77,2.35 -4.98,3.94 -1.24,1.59 -1.87,3.48 -1.89,5.66 0.02,1.54 0.54,2.96 1.48,4.3 0.97,1.32 2.24,2.54 3.84,3.64 1.58,1.11 3.33,2.11 5.25,3 1.9,0.89 3.8,1.67 5.72,2.34 1.89,0.67 3.65,1.24 5.22,1.69 1.61,0.44 2.87,0.77 3.84,1 0.97,0.23 1.46,0.34 1.48,0.34zm93.65 -34.83l0 -5.22 -42.89 0 0 5.22 14.88 0 0 29.28 0 5.39 12.4 0 0 -5.3 0 -29.36 15.61 0zm-6.28 -14.03l0 -6.61 -8.9 0 0 4.32c-0.02,0.85 -0.56,1.54 -1.6,2.09 -1.02,0.54 -2.36,0.95 -3.99,1.22 -1.63,0.27 -3.38,0.42 -5.2,0.42 -1.83,0.01 -3.57,-0.11 -5.2,-0.34 -1.63,-0.24 -2.96,-0.6 -3.98,-1.07 -1.05,-0.48 -1.58,-1.06 -1.61,-1.76l0 -4.89 -8.9 0 0 6.61c0.05,1.12 0.73,2.08 2.11,2.88 1.36,0.79 3.19,1.43 5.47,1.92 2.26,0.48 4.76,0.79 7.51,0.95 2.72,0.17 5.47,0.17 8.24,0 2.75,-0.16 5.3,-0.48 7.66,-0.95 2.36,-0.49 4.28,-1.13 5.79,-1.92 1.5,-0.8 2.38,-1.76 2.6,-2.88zm65.06 40.95c0.02,0.01 0.41,0.22 1.14,0.6 0.73,0.38 1.58,0.83 2.6,1.34 1,0.52 1.94,0.98 2.84,1.4 0.87,0.41 1.51,0.65 1.87,0.74 0.94,-0.39 2.09,-0.94 3.38,-1.62 1.29,-0.68 2.6,-1.5 3.91,-2.41 1.34,-0.92 2.56,-1.94 3.62,-3.06 1.09,-1.11 1.9,-2.3 2.43,-3.55 0.53,-1.25 0.66,-2.54 0.37,-3.89 -0.37,-1.46 -1.15,-2.84 -2.33,-4.15 -1.17,-1.31 -2.7,-2.48 -4.57,-3.48 -1.87,-1.01 -4.06,-1.81 -6.54,-2.38 -2.46,-0.57 -5.18,-0.85 -8.15,-0.84 -2.29,0.04 -4.2,0.22 -5.74,0.53 -1.56,0.31 -2.77,0.68 -3.7,1.09 -0.9,0.41 -1.56,0.78 -1.94,1.07 -0.39,0.31 -0.58,0.48 -0.58,0.49l0 -8.81 40.11 0 0 -5.22 -96.28 0 0 5.22 43.76 0 0 17.05c0,0.03 -0.34,0.24 -1.02,0.68 -0.65,0.43 -1.6,0.94 -2.84,1.51 -1.24,0.58 -2.7,1.1 -4.37,1.56 -1.7,0.46 -3.57,0.73 -5.62,0.81 -1.97,0.06 -3.67,-0.11 -5.15,-0.49 -1.46,-0.38 -2.65,-0.91 -3.6,-1.57 -0.94,-0.67 -1.65,-1.41 -2.09,-2.23 -0.44,-0.83 -0.61,-1.65 -0.54,-2.47 0.27,-1.81 1.26,-3.22 3.04,-4.24 1.78,-1.02 4.06,-1.54 6.88,-1.55 1.02,0.02 2.09,0.17 3.23,0.43 1.14,0.26 2.11,0.53 2.92,0.79 0.82,0.26 1.26,0.39 1.29,0.42l4.23 -4.57c-0.02,-0.02 -0.48,-0.15 -1.38,-0.4 -0.93,-0.26 -2.07,-0.54 -3.45,-0.87 -1.41,-0.33 -2.87,-0.63 -4.4,-0.87 -1.51,-0.24 -2.92,-0.38 -4.18,-0.39 -3.84,0.02 -7.27,0.52 -10.31,1.48 -3.04,0.96 -5.47,2.3 -7.24,3.97 -1.78,1.67 -2.68,3.57 -2.72,5.72 0.02,1.77 0.63,3.37 1.85,4.83 1.19,1.46 2.8,2.73 4.84,3.79 2.04,1.07 4.35,1.9 6.9,2.49 2.58,0.58 5.23,0.87 8,0.88 2.77,-0.01 5.15,-0.22 7.15,-0.57 1.99,-0.37 3.62,-0.79 4.89,-1.26 1.26,-0.48 2.21,-0.9 2.82,-1.26 0.61,-0.37 0.9,-0.56 0.9,-0.57l0 6.28 0 5.3 12.4 0 0 -5.22 0 -13.05c0,-0.02 0.15,-0.19 0.44,-0.52 0.3,-0.34 0.73,-0.75 1.31,-1.24 0.61,-0.49 1.36,-0.98 2.29,-1.47 0.92,-0.49 2.02,-0.91 3.28,-1.24 1.26,-0.33 2.72,-0.5 4.35,-0.52 2.5,-0.01 4.71,0.39 6.61,1.21 1.92,0.81 3.35,2.11 4.33,3.85 0.41,0.91 0.34,1.89 -0.24,2.92 -0.56,1.05 -1.43,2.07 -2.63,3.06 -1.21,1 -2.56,1.89 -4.01,2.68 -1.48,0.79 -2.94,1.37 -4.35,1.78zm65.06 -26.92l0 -5.22 -42.89 0 0 5.22 14.88 0 0 29.28 0 5.39 12.4 0 0 -5.3 0 -29.36 15.61 0zm-13.57 -4.81l-22.03 -16.15 -14 0 0 3.5 6.56 0 17.8 12.64 11.67 0zm83.73 4.81l0 -5.22 -78.92 0 0 5.22 18.09 0 0 13.7c-0.03,-0.01 -0.37,0 -1.02,0 -0.68,0.02 -1.48,0.09 -2.43,0.23 -0.97,0.12 -1.9,0.38 -2.82,0.74 -0.92,0.35 -1.65,0.88 -2.19,1.56 -0.83,1.12 -1.09,2.22 -0.85,3.32 0.27,1.1 0.98,2.08 2.12,2.98 1.14,0.89 2.59,1.58 4.42,2.07 1.8,0.49 3.84,0.69 6.13,0.61 1.82,-0.1 3.28,-0.34 4.4,-0.74 1.12,-0.39 1.97,-0.86 2.55,-1.4 0.59,-0.53 0.97,-1.06 1.17,-1.58 0.22,-0.52 0.34,-0.95 0.34,-1.3 0.02,-0.34 0.02,-0.52 0,-0.53l21 0 0 9.62 0 5.39 12.4 0 0 -5.3 0 -29.36 15.61 0zm-28.01 13.7l-21 0 0 -13.7 21 0 0 13.7zm64.47 -13.7l0 -5.22 -42.89 0 0 5.22 14.88 0 0 29.28 0 5.39 12.4 0 0 -5.3 0 -29.36 15.61 0zm96.56 11.42l-21 0c0.92,-1.25 1.38,-2.5 1.41,-3.74 0.03,-1.22 -0.22,-2.38 -0.7,-3.44 -0.46,-1.06 -1,-1.97 -1.58,-2.7 -0.58,-0.75 -1.02,-1.26 -1.31,-1.54l23.19 0 0 11.42zm-16.48 23.25l0 -5.3 -13.71 0c-2.36,-0.01 -4.26,-0.27 -5.71,-0.76 -1.46,-0.49 -2.56,-1.09 -3.36,-1.82 -0.78,-0.73 -1.36,-1.48 -1.73,-2.23 -0.36,-0.59 -0.63,-1.29 -0.8,-2.09 -0.17,-0.81 -0.27,-1.6 -0.32,-2.39 -0.04,-0.79 -0.07,-1.44 -0.07,-1.96 0.03,-0.53 0.03,-0.8 0.03,-0.81 0.02,0 0.36,0 1.07,0 0.68,0 1.61,-0.03 2.75,-0.08 1.14,-0.06 2.38,-0.16 3.77,-0.33l34.57 0 0 12.4 0 5.39 12.4 0 0 -5.3 0 -29.36 15.61 0 0 -5.22 -100.79 0 0 5.22 36.17 0c0.41,0.22 1,0.6 1.78,1.15 0.76,0.56 1.48,1.22 2.14,2.03 0.66,0.79 1.02,1.66 1.09,2.57 0.07,0.93 -0.37,1.87 -1.36,2.81 -0.97,0.83 -2.09,1.43 -3.35,1.8 -1.29,0.38 -2.72,0.61 -4.3,0.7 -1.6,0.08 -3.38,0.12 -5.32,0.11l-13.42 0c-1.41,0.01 -2.55,0.3 -3.45,0.84 -0.88,0.56 -1.34,1.3 -1.36,2.26 0.02,0.8 0.44,1.47 1.26,2.01 0.83,0.55 2.02,0.82 3.55,0.85l4.67 0c0,0.01 -0.03,0.28 -0.03,0.83 0,0.53 0.03,1.25 0.07,2.12 0.07,0.88 0.22,1.85 0.46,2.88 0.22,1.03 0.58,2.07 1.07,3.09 0.46,1.02 1.11,1.93 1.92,2.74 1.92,1.85 4.47,3.29 7.71,4.31 3.26,1.03 7.1,1.55 11.55,1.56l15.46 0zm31.22 -39.48l-22.03 -16.15 -14 0 0 3.5 6.56 0 17.8 12.64 11.67 0zm11.52 -10.36c-0.02,-0.74 -0.37,-1.43 -1.02,-2.04 -0.66,-0.61 -1.54,-1.1 -2.63,-1.46 -1.09,-0.37 -2.31,-0.56 -3.64,-0.57 -1.34,0.02 -2.56,0.2 -3.65,0.57 -1.09,0.37 -1.97,0.85 -2.63,1.46 -0.66,0.61 -1,1.3 -1.02,2.04 0.02,0.75 0.37,1.41 1.02,2.02 0.65,0.59 1.53,1.07 2.63,1.44 1.09,0.35 2.31,0.53 3.65,0.55 1.33,-0.02 2.55,-0.19 3.64,-0.55 1.09,-0.37 1.97,-0.84 2.63,-1.44 0.65,-0.6 1,-1.27 1.02,-2.02zm56.74 41.44l-6.13 -4.24c-0.49,0.46 -1.34,1 -2.58,1.64 -1.21,0.63 -2.7,1.27 -4.42,1.89 -1.72,0.63 -3.6,1.18 -5.64,1.63 -2.02,0.46 -4.08,0.75 -6.17,0.87 -2.33,0.12 -4.64,0.06 -6.98,-0.24 -2.31,-0.29 -4.44,-0.82 -6.39,-1.61 -1.92,-0.79 -3.48,-1.85 -4.67,-3.21 -1.17,-1.36 -1.78,-3.04 -1.8,-5.06 0,-1.19 0.39,-2.26 1.14,-3.24 0.76,-0.96 1.8,-1.74 3.17,-2.32 1.33,-0.57 2.94,-0.87 4.74,-0.89l26.11 0 0 -11.5 13.56 0 0 -5.22 -67.1 0 0 5.22 42.01 0 0 6.44 -17.21 0c-3.5,0.02 -6.61,0.48 -9.41,1.37 -2.77,0.91 -4.98,2.16 -6.61,3.78 -1.63,1.6 -2.46,3.48 -2.5,5.61 0.02,2.67 0.87,5.03 2.55,7.06 1.65,2.03 3.96,3.74 6.88,5.11 2.91,1.37 6.27,2.41 10.06,3.1 3.82,0.69 7.85,1.05 12.16,1.05 2.8,-0.01 5.52,-0.22 8.15,-0.63 2.65,-0.42 5.1,-0.96 7.36,-1.66 2.29,-0.69 4.26,-1.47 5.94,-2.33 1.67,-0.85 2.94,-1.74 3.79,-2.65zm50.91 8.4l0 -5.3 -13.71 0c-2.36,-0.01 -4.28,-0.27 -5.71,-0.76 -1.46,-0.49 -2.58,-1.09 -3.36,-1.82 -0.78,-0.73 -1.36,-1.48 -1.73,-2.23 -0.36,-0.59 -0.63,-1.29 -0.8,-2.09 -0.17,-0.81 -0.3,-1.6 -0.34,-2.39 -0.05,-0.79 -0.05,-1.44 -0.05,-1.96 0,-0.53 0.03,-0.8 0.03,-0.81 0.02,0.01 0.58,0 1.65,0 1.09,-0.01 2.48,-0.08 4.16,-0.22 1.7,-0.14 3.5,-0.39 5.4,-0.75 1.92,-0.37 3.7,-0.9 5.4,-1.59 1.68,-0.69 3.06,-1.62 4.11,-2.75 1.07,-1.25 1.66,-2.51 1.78,-3.78 0.12,-1.26 -0.02,-2.44 -0.44,-3.56 -0.44,-1.12 -0.95,-2.08 -1.53,-2.9 -0.58,-0.81 -1.05,-1.4 -1.41,-1.75l16.63 0 0 -5.22 -64.19 0 0 5.22 34.28 0c0.46,0.28 1.07,0.73 1.8,1.32 0.73,0.58 1.39,1.26 1.94,2.04 0.58,0.79 0.9,1.62 0.93,2.51 0.05,0.89 -0.39,1.78 -1.31,2.69 -0.97,0.83 -2.09,1.43 -3.35,1.8 -1.29,0.38 -2.72,0.61 -4.33,0.7 -1.58,0.08 -3.35,0.12 -5.3,0.11l-13.42 0c-1.41,0.01 -2.55,0.3 -3.45,0.84 -0.88,0.56 -1.34,1.3 -1.37,2.26 0,0.8 0.44,1.47 1.26,2.01 0.83,0.55 2.02,0.82 3.55,0.85l4.67 0c0,0.01 -0.02,0.28 -0.02,0.83 -0.02,0.53 0.02,1.25 0.07,2.12 0.07,0.88 0.22,1.85 0.46,2.88 0.22,1.03 0.58,2.07 1.07,3.09 0.46,1.02 1.12,1.93 1.92,2.74 1.9,1.85 4.47,3.29 7.7,4.31 3.24,1.03 7.1,1.55 11.55,1.56l15.46 0z"/>
   </g>
  </g>
 </g>
</svg>
